<?xml version="1.0" encoding="UTF-8" standalone="no"?>
<!DOCTYPE svg PUBLIC "-//W3C//DTD SVG 1.1//EN"
 "http://www.w3.org/Graphics/SVG/1.1/DTD/svg11.dtd">
<!-- Generated by graphviz version 2.43.0 (0)
 -->
<!-- Title: polars Pages: 1 -->
<svg width="1655pt" height="443pt"
 viewBox="0.00 0.00 1655.37 443.22" xmlns="http://www.w3.org/2000/svg" xmlns:xlink="http://www.w3.org/1999/xlink">
<g id="graph0" class="graph" transform="scale(1 1) rotate(0) translate(4 439.22)">
<title>polars</title>
<polygon fill="white" stroke="transparent" points="-4,4 -4,-439.22 1651.37,-439.22 1651.37,4 -4,4"/>
<text text-anchor="start" x="802.68" y="-27" font-family="Helvetica,sans-Serif" font-weight="bold" font-size="10.00">Legend</text>
<text text-anchor="start" x="589.18" y="-7" font-family="Helvetica,sans-Serif" font-size="10.00">◯ streaming engine node </text>
<text text-anchor="start" x="719.18" y="-7" font-family="Helvetica,sans-Serif" font-size="10.00" fill="#fffbb2">⬤</text>
<text text-anchor="start" x="731.18" y="-7" font-family="Helvetica,sans-Serif" font-size="10.00"> potentially memory&#45;intensive node </text>
<text text-anchor="start" x="910.18" y="-7" font-family="Helvetica,sans-Serif" font-size="10.00" fill="#ffb2b2">⬤</text>
<text text-anchor="start" x="922.18" y="-7" font-family="Helvetica,sans-Serif" font-size="10.00"> in&#45;memory engine fallback</text>
<!-- 4294967304 -->
<g id="node1" class="node">
<title>4294967304</title>
<ellipse fill="none" stroke="black" cx="823.68" cy="-417.22" rx="80.69" ry="18"/>
<text text-anchor="middle" x="823.68" y="-413.52" font-family="Monospace" font-size="14.00">ordered&#45;union</text>
</g>
<!-- 4294967299 -->
<g id="node2" class="node">
<title>4294967299</title>
<ellipse fill="none" stroke="black" cx="157.68" cy="-336.35" rx="157.87" ry="26.74"/>
<text text-anchor="middle" x="157.68" y="-340.15" font-family="Monospace" font-size="14.00">filter</text>
<text text-anchor="middle" x="157.68" y="-325.15" font-family="Monospace" font-size="14.00">x2 = [(col(&quot;x2&quot;)) == (0)]</text>
</g>
<!-- 4294967299&#45;&gt;4294967304 -->
<g id="edge4" class="edge">
<title>4294967299&#45;&gt;4294967304</title>
<path fill="none" stroke="black" d="M268.75,-355.43C287.08,-358.19 305.9,-360.89 323.68,-363.22 469.92,-382.35 640.9,-399.32 740.28,-408.64"/>
<polygon fill="black" stroke="black" points="739.98,-412.13 750.27,-409.57 740.64,-405.16 739.98,-412.13"/>
</g>
<!-- 4294967305 -->
<g id="node3" class="node">
<title>4294967305</title>
<ellipse fill="#fffbb2" stroke="black" cx="823.68" cy="-255.48" rx="69.59" ry="18"/>
<text text-anchor="middle" x="823.68" y="-251.78" font-family="Monospace" font-size="14.00">multiplexer</text>
</g>
<!-- 4294967305&#45;&gt;4294967299 -->
<g id="edge3" class="edge">
<title>4294967305&#45;&gt;4294967299</title>
<path fill="none" stroke="black" d="M759.24,-262.29C663.89,-271.12 479.7,-289.07 323.68,-309.48 309.09,-311.39 293.81,-313.55 278.67,-315.79"/>
<polygon fill="black" stroke="black" points="278.12,-312.33 268.75,-317.27 279.15,-319.26 278.12,-312.33"/>
</g>
<!-- 4294967300 -->
<g id="node6" class="node">
<title>4294967300</title>
<ellipse fill="none" stroke="black" cx="490.68" cy="-336.35" rx="157.87" ry="26.74"/>
<text text-anchor="middle" x="490.68" y="-340.15" font-family="Monospace" font-size="14.00">filter</text>
<text text-anchor="middle" x="490.68" y="-325.15" font-family="Monospace" font-size="14.00">x2 = [(col(&quot;x2&quot;)) == (1)]</text>
</g>
<!-- 4294967305&#45;&gt;4294967300 -->
<g id="edge5" class="edge">
<title>4294967305&#45;&gt;4294967300</title>
<path fill="none" stroke="black" d="M774.19,-268.2C725.79,-279.67 650.72,-297.45 589.99,-311.83"/>
<polygon fill="black" stroke="black" points="588.91,-308.49 579.99,-314.2 590.52,-315.3 588.91,-308.49"/>
</g>
<!-- 4294967301 -->
<g id="node7" class="node">
<title>4294967301</title>
<ellipse fill="none" stroke="black" cx="823.68" cy="-336.35" rx="157.87" ry="26.74"/>
<text text-anchor="middle" x="823.68" y="-340.15" font-family="Monospace" font-size="14.00">filter</text>
<text text-anchor="middle" x="823.68" y="-325.15" font-family="Monospace" font-size="14.00">x2 = [(col(&quot;x2&quot;)) == (2)]</text>
</g>
<!-- 4294967305&#45;&gt;4294967301 -->
<g id="edge7" class="edge">
<title>4294967305&#45;&gt;4294967301</title>
<path fill="none" stroke="black" d="M823.68,-273.59C823.68,-281.08 823.68,-290.17 823.68,-299.05"/>
<polygon fill="black" stroke="black" points="820.18,-299.27 823.68,-309.27 827.18,-299.27 820.18,-299.27"/>
</g>
<!-- 4294967302 -->
<g id="node8" class="node">
<title>4294967302</title>
<ellipse fill="none" stroke="black" cx="1156.68" cy="-336.35" rx="157.87" ry="26.74"/>
<text text-anchor="middle" x="1156.68" y="-340.15" font-family="Monospace" font-size="14.00">filter</text>
<text text-anchor="middle" x="1156.68" y="-325.15" font-family="Monospace" font-size="14.00">x2 = [(col(&quot;x2&quot;)) == (3)]</text>
</g>
<!-- 4294967305&#45;&gt;4294967302 -->
<g id="edge9" class="edge">
<title>4294967305&#45;&gt;4294967302</title>
<path fill="none" stroke="black" d="M873.18,-268.2C921.58,-279.67 996.65,-297.45 1057.38,-311.83"/>
<polygon fill="black" stroke="black" points="1056.85,-315.3 1067.38,-314.2 1058.46,-308.49 1056.85,-315.3"/>
</g>
<!-- 4294967303 -->
<g id="node9" class="node">
<title>4294967303</title>
<ellipse fill="none" stroke="black" cx="1489.68" cy="-336.35" rx="157.87" ry="26.74"/>
<text text-anchor="middle" x="1489.68" y="-340.15" font-family="Monospace" font-size="14.00">filter</text>
<text text-anchor="middle" x="1489.68" y="-325.15" font-family="Monospace" font-size="14.00">x2 = [(col(&quot;x2&quot;)) == (4)]</text>
</g>
<!-- 4294967305&#45;&gt;4294967303 -->
<g id="edge11" class="edge">
<title>4294967305&#45;&gt;4294967303</title>
<path fill="none" stroke="black" d="M888.13,-262.29C983.48,-271.12 1167.67,-289.07 1323.68,-309.48 1338.28,-311.39 1353.56,-313.55 1368.7,-315.79"/>
<polygon fill="black" stroke="black" points="1368.22,-319.26 1378.62,-317.27 1369.25,-312.33 1368.22,-319.26"/>
</g>
<!-- 4294967298 -->
<g id="node4" class="node">
<title>4294967298</title>
<ellipse fill="none" stroke="black" cx="823.68" cy="-174.61" rx="186.85" ry="26.74"/>
<text text-anchor="middle" x="823.68" y="-178.41" font-family="Monospace" font-size="14.00">with&#45;columns</text>
<text text-anchor="middle" x="823.68" y="-163.41" font-family="Monospace" font-size="14.00">x2 = [(col(&quot;x&quot;)) * (col(&quot;x&quot;))]</text>
</g>
<!-- 4294967298&#45;&gt;4294967305 -->
<g id="edge2" class="edge">
<title>4294967298&#45;&gt;4294967305</title>
<path fill="none" stroke="black" d="M823.68,-201.87C823.68,-209.97 823.68,-218.91 823.68,-227.09"/>
<polygon fill="black" stroke="black" points="820.18,-227.26 823.68,-237.26 827.18,-227.26 820.18,-227.26"/>
</g>
<!-- 4294967297 -->
<g id="node5" class="node">
<title>4294967297</title>
<ellipse fill="#fffbb2" stroke="black" cx="823.68" cy="-84.87" rx="105.22" ry="26.74"/>
<text text-anchor="middle" x="823.68" y="-88.67" font-family="Monospace" font-size="14.00">in&#45;memory&#45;source</text>
<text text-anchor="middle" x="823.68" y="-73.67" font-family="Monospace" font-size="14.00">cols: x</text>
</g>
<!-- 4294967297&#45;&gt;4294967298 -->
<g id="edge1" class="edge">
<title>4294967297&#45;&gt;4294967298</title>
<path fill="none" stroke="black" d="M823.68,-112.19C823.68,-120.16 823.68,-129.05 823.68,-137.54"/>
<polygon fill="black" stroke="black" points="820.18,-137.61 823.68,-147.61 827.18,-137.61 820.18,-137.61"/>
</g>
<!-- 4294967300&#45;&gt;4294967304 -->
<g id="edge6" class="edge">
<title>4294967300&#45;&gt;4294967304</title>
<path fill="none" stroke="black" d="M580.36,-358.59C637.25,-372.06 709.46,-389.17 760.4,-401.23"/>
<polygon fill="black" stroke="black" points="759.75,-404.67 770.29,-403.57 761.36,-397.86 759.75,-404.67"/>
</g>
<!-- 4294967301&#45;&gt;4294967304 -->
<g id="edge8" class="edge">
<title>4294967301&#45;&gt;4294967304</title>
<path fill="none" stroke="black" d="M823.68,-363.61C823.68,-371.71 823.68,-380.65 823.68,-388.83"/>
<polygon fill="black" stroke="black" points="820.18,-389 823.68,-399 827.18,-389 820.18,-389"/>
</g>
<!-- 4294967302&#45;&gt;4294967304 -->
<g id="edge10" class="edge">
<title>4294967302&#45;&gt;4294967304</title>
<path fill="none" stroke="black" d="M1067.01,-358.59C1010.12,-372.06 937.91,-389.17 886.97,-401.23"/>
<polygon fill="black" stroke="black" points="886.01,-397.86 877.08,-403.57 887.62,-404.67 886.01,-397.86"/>
</g>
<!-- 4294967303&#45;&gt;4294967304 -->
<g id="edge12" class="edge">
<title>4294967303&#45;&gt;4294967304</title>
<path fill="none" stroke="black" d="M1378.62,-355.43C1360.29,-358.19 1341.47,-360.89 1323.68,-363.22 1177.45,-382.35 1006.47,-399.32 907.09,-408.64"/>
<polygon fill="black" stroke="black" points="906.73,-405.16 897.1,-409.57 907.39,-412.13 906.73,-405.16"/>
</g>
</g>
</svg>
