<svg width="2544" height="424" viewBox="0 0 2544 424" fill="none" xmlns="http://www.w3.org/2000/svg">
<path d="M1228.36 307.71C1213.02 307.71 1199.92 304.323 1189.06 297.549C1178.2 290.775 1169.86 281.403 1164.05 269.434C1158.24 257.464 1155.33 243.731 1155.33 228.235C1155.33 212.461 1158.29 198.636 1164.19 186.758C1170.1 174.882 1178.48 165.648 1189.34 159.061C1200.3 152.38 1213.3 149.04 1228.36 149.04C1243.79 149.04 1256.94 152.427 1267.8 159.201C1278.75 165.882 1287.09 175.207 1292.81 187.176C1298.62 199.053 1301.52 212.739 1301.52 228.235C1301.52 244.009 1298.62 257.881 1292.81 269.852C1287 281.728 1278.61 291.007 1267.66 297.688C1256.7 304.368 1243.6 307.71 1228.36 307.71ZM1228.36 288.084C1245.5 288.084 1258.27 282.564 1266.65 271.521C1275.04 260.387 1279.23 245.958 1279.23 228.235C1279.23 210.048 1274.99 195.573 1266.51 184.81C1258.13 174.046 1245.41 168.664 1228.36 168.664C1216.83 168.664 1207.3 171.217 1199.78 176.319C1192.34 181.331 1186.77 188.337 1183.06 197.337C1179.44 206.245 1177.62 216.544 1177.62 228.235C1177.62 246.33 1181.91 260.851 1190.49 271.8C1199.06 282.657 1211.68 288.084 1228.36 288.084Z" fill="#0075FF"/>
<path d="M1335.41 303.535C1332.53 303.535 1330.19 301.197 1330.19 298.315V104.153C1330.19 101.27 1332.53 98.9333 1335.41 98.9333H1345.98C1348.86 98.9333 1351.2 101.27 1351.2 104.153V298.315C1351.2 301.197 1348.86 303.535 1345.98 303.535H1335.41Z" fill="#0075FF"/>
<path d="M1432.48 307.71C1420.85 307.71 1411.09 305.669 1403.18 301.586C1395.37 297.502 1389.51 292.074 1385.61 285.301C1381.7 278.527 1379.75 271.151 1379.75 263.171C1379.75 255.005 1381.41 248.046 1384.75 242.293C1388.18 236.448 1392.8 231.668 1398.61 227.957C1404.52 224.245 1411.33 221.416 1419.04 219.467C1426.86 217.611 1435.48 215.987 1444.91 214.595C1454.43 213.111 1463.73 211.859 1472.78 210.837C1479.25 210.05 1485.14 209.285 1490.47 208.543C1491.84 208.352 1492.51 210.201 1491.32 210.915C1490.46 211.426 1489.37 210.796 1489.37 209.801C1489.33 196.109 1486.36 185.876 1480.49 179.103C1474.3 171.959 1463.53 168.386 1448.2 168.386C1437.63 168.386 1428.67 170.705 1421.33 175.345C1415.33 179.194 1410.8 184.894 1407.74 192.445C1406.67 195.102 1403.82 196.701 1401.06 195.912L1390.51 192.895C1387.79 192.114 1386.16 189.288 1387.09 186.608C1390.95 175.485 1397.56 166.674 1406.9 160.175C1417.57 152.752 1431.44 149.04 1448.48 149.04C1462.59 149.04 1474.54 151.638 1484.35 156.833C1494.26 161.937 1501.27 169.361 1505.36 179.103C1507.26 183.465 1508.51 188.337 1509.07 193.717C1509.65 199.099 1509.93 204.574 1509.93 210.142V298.315C1509.93 301.197 1507.6 303.535 1504.72 303.535H1496.44C1493.55 303.535 1491.21 301.197 1491.21 298.315V269.333C1491.21 267.654 1492.92 266.514 1494.47 267.15C1495.67 267.643 1496.25 269.018 1495.73 270.207C1490.47 282.046 1482.63 291.159 1472.21 297.549C1461.16 304.323 1447.92 307.71 1432.48 307.71ZM1434.91 290.033C1444.72 290.033 1453.3 288.316 1460.64 284.883C1467.97 281.45 1473.88 276.765 1478.35 270.826C1482.83 264.794 1485.74 258.021 1487.07 250.505C1488.21 245.68 1488.83 240.391 1488.93 234.637C1488.99 230.543 1489.03 227.176 1489.06 224.538C1489.07 223.17 1490.52 222.282 1491.73 222.898C1493.36 223.714 1492.93 226.121 1491.14 226.344C1485.68 227.021 1479.9 227.698 1473.78 228.375C1465.49 229.302 1457.3 230.369 1449.2 231.576C1441.19 232.782 1433.95 234.22 1427.48 235.891C1423.1 237.097 1418.86 238.814 1414.76 241.04C1410.66 243.174 1407.28 246.052 1404.61 249.67C1402.04 253.289 1400.75 257.789 1400.75 263.171C1400.75 267.531 1401.85 271.753 1404.04 275.836C1406.33 279.919 1409.95 283.306 1414.9 285.997C1419.95 288.688 1426.62 290.033 1434.91 290.033Z" fill="#0075FF"/>
<path d="M1546.64 303.535C1543.76 303.535 1541.42 301.197 1541.42 298.315V158.435C1541.42 155.552 1543.76 153.215 1546.64 153.215H1555.06C1557.95 153.215 1560.28 155.552 1560.28 158.435V184.374C1560.28 186.026 1558.2 186.747 1557.18 185.448C1556.8 184.966 1556.7 184.32 1556.93 183.752C1558.6 179.655 1560.72 175.878 1563.29 172.422C1566.04 168.618 1569.05 165.51 1572.29 163.097C1576.29 159.664 1580.95 157.067 1586.3 155.303C1591.63 153.447 1597.01 152.38 1602.44 152.102C1606.3 151.837 1609.91 151.949 1613.29 152.435C1615.67 152.777 1617.31 154.899 1617.31 157.296V165.753C1617.31 169.144 1614.11 171.635 1610.73 171.305C1606.99 170.937 1603.03 170.985 1598.86 171.449C1592.2 172.191 1586.06 174.788 1580.43 179.243C1575.29 183.14 1571.43 187.825 1568.86 193.3C1566.28 198.682 1564.57 204.434 1563.71 210.558C1562.85 216.591 1562.43 222.575 1562.43 228.513V298.315C1562.43 301.197 1560.09 303.535 1557.21 303.535H1546.64Z" fill="#0075FF"/>
<path d="M1690.7 307.57C1672.61 307.57 1657.7 303.766 1645.97 296.157C1635.89 289.558 1629.18 280.726 1625.84 269.661C1624.98 266.836 1626.96 264.032 1629.87 263.558L1641.32 261.7C1643.96 261.27 1646.46 262.937 1647.49 265.406C1650.24 271.89 1654.91 277.223 1661.56 281.403C1669.74 286.415 1679.85 288.919 1691.84 288.919C1703.56 288.919 1712.8 286.553 1719.57 281.822C1726.33 276.996 1729.72 270.454 1729.72 262.196C1729.72 257.557 1728.62 253.799 1726.43 250.922C1724.34 247.952 1720 245.216 1713.43 242.71C1706.85 240.205 1697.05 237.237 1683.99 233.802C1669.98 230.091 1659.03 226.379 1651.11 222.668C1643.21 218.956 1637.59 214.688 1634.25 209.863C1630.92 204.945 1629.25 198.961 1629.25 191.908C1629.25 183.372 1631.74 175.902 1636.68 169.5C1641.64 163.004 1648.5 157.994 1657.26 154.467C1666.02 150.849 1676.23 149.04 1687.84 149.04C1699.46 149.04 1709.85 150.896 1718.99 154.607C1728.24 158.226 1735.67 163.329 1741.3 169.917C1745.85 175.251 1748.89 181.281 1750.44 188.013C1751.08 190.715 1749.16 193.258 1746.43 193.737L1735.06 195.728C1732.2 196.23 1729.52 194.268 1728.61 191.51C1726.47 185.08 1722.36 179.833 1716.28 175.764C1708.76 170.567 1699.18 167.876 1687.56 167.691C1676.61 167.412 1667.69 169.453 1660.84 173.815C1653.98 178.083 1650.55 183.79 1650.55 190.934C1650.55 194.924 1651.79 198.357 1654.26 201.233C1656.74 204.018 1661.22 206.662 1667.69 209.168C1674.26 211.672 1683.6 214.41 1695.7 217.379C1709.91 220.905 1721.04 224.617 1729.14 228.513C1737.24 232.411 1743.01 237.003 1746.44 242.293C1749.86 247.582 1751.59 254.123 1751.59 261.918C1751.59 276.115 1746.15 287.295 1735.29 295.462C1724.52 303.535 1709.67 307.57 1690.7 307.57Z" fill="#0075FF"/>
<path d="M1005.67 303.536C1004.45 303.536 1003.47 302.576 1003.47 301.395V105.252C1003.47 104.069 1004.45 103.11 1005.67 103.11H1082.92C1084.92 103.11 1087.16 103.203 1089.64 103.389C1092.21 103.481 1094.78 103.76 1097.35 104.224C1108.12 105.801 1117.22 109.466 1124.65 115.219C1132.18 120.879 1137.84 128.024 1141.66 136.654C1145.56 145.284 1147.52 154.841 1147.52 165.326C1147.52 175.718 1145.56 185.229 1141.66 193.858C1137.75 202.488 1132.03 209.679 1124.51 215.432C1117.08 221.092 1108.03 224.71 1097.35 226.289C1094.78 226.659 1092.21 226.938 1089.64 227.123C1087.16 227.309 1084.92 227.401 1082.92 227.401H1026.67C1025.46 227.401 1024.47 228.361 1024.47 229.542V301.395C1024.47 302.576 1023.49 303.536 1022.28 303.536H1005.67ZM1024.47 205.774C1024.47 206.957 1025.46 207.915 1026.67 207.915H1082.35C1084.06 207.915 1086.07 207.824 1088.35 207.637C1090.64 207.452 1092.88 207.127 1095.07 206.663C1102.12 205.179 1107.88 202.348 1112.36 198.173C1116.93 193.997 1120.32 189.033 1122.51 183.28C1124.79 177.527 1125.94 171.542 1125.94 165.326C1125.94 159.109 1124.79 153.123 1122.51 147.371C1120.32 141.526 1116.93 136.514 1112.36 132.339C1107.88 128.163 1102.12 125.333 1095.07 123.849C1092.88 123.385 1090.64 123.106 1088.35 123.014C1086.07 122.828 1084.06 122.735 1082.35 122.735H1026.67C1025.46 122.735 1024.47 123.694 1024.47 124.877V205.774Z" fill="#0075FF"/>
<mask id="mask0_176_75" style="mask-type:luminance" maskUnits="userSpaceOnUse" x="989" y="84" width="778" height="227">
<path d="M1766.67 84.8H989.333V310.933H1766.67V84.8Z" fill="white"/>
<path d="M1228.36 307.709C1213.02 307.709 1199.92 304.323 1189.06 297.549C1178.2 290.775 1169.86 281.403 1164.05 269.434C1158.24 257.464 1155.33 243.731 1155.33 228.235C1155.33 212.461 1158.29 198.635 1164.19 186.758C1170.1 174.882 1178.48 165.648 1189.34 159.061C1200.3 152.38 1213.3 149.04 1228.36 149.04C1243.79 149.04 1256.94 152.427 1267.8 159.201C1278.75 165.881 1287.09 175.207 1292.81 187.176C1298.62 199.052 1301.52 212.739 1301.52 228.235C1301.52 244.009 1298.62 257.881 1292.81 269.852C1287 281.728 1278.61 291.007 1267.66 297.688C1256.7 304.368 1243.6 307.709 1228.36 307.709ZM1228.36 288.084C1245.5 288.084 1258.27 282.563 1266.65 271.521C1275.04 260.387 1279.23 245.958 1279.23 228.235C1279.23 210.048 1274.99 195.573 1266.51 184.81C1258.13 174.046 1245.41 168.664 1228.36 168.664C1216.83 168.664 1207.3 171.217 1199.78 176.319C1192.34 181.331 1186.77 188.336 1183.06 197.337C1179.44 206.245 1177.62 216.544 1177.62 228.235C1177.62 246.33 1181.91 260.85 1190.49 271.799C1199.06 282.657 1211.68 288.084 1228.36 288.084Z" fill="black"/>
<path d="M1335.41 303.534C1332.53 303.534 1330.19 301.197 1330.19 298.315V104.153C1330.19 101.27 1332.53 98.9333 1335.41 98.9333H1345.98C1348.86 98.9333 1351.2 101.27 1351.2 104.153V298.315C1351.2 301.197 1348.86 303.534 1345.98 303.534H1335.41Z" fill="black"/>
<path d="M1432.48 307.709C1420.85 307.709 1411.09 305.669 1403.18 301.585C1395.37 297.502 1389.51 292.074 1385.61 285.301C1381.7 278.527 1379.75 271.151 1379.75 263.171C1379.75 255.005 1381.41 248.046 1384.75 242.293C1388.18 236.448 1392.8 231.668 1398.61 227.956C1404.52 224.245 1411.33 221.416 1419.04 219.467C1426.86 217.611 1435.48 215.987 1444.91 214.595C1454.43 213.111 1463.73 211.859 1472.78 210.837C1479.25 210.05 1485.14 209.285 1490.47 208.543C1491.84 208.352 1492.51 210.201 1491.32 210.914C1490.46 211.426 1489.37 210.796 1489.37 209.801C1489.33 196.108 1486.36 185.876 1480.49 179.103C1474.3 171.959 1463.53 168.386 1448.2 168.386C1437.63 168.386 1428.67 170.705 1421.33 175.345C1415.33 179.194 1410.8 184.894 1407.74 192.445C1406.67 195.102 1403.82 196.701 1401.06 195.912L1390.51 192.894C1387.79 192.114 1386.16 189.288 1387.09 186.608C1390.95 175.485 1397.56 166.674 1406.9 160.174C1417.57 152.752 1431.44 149.04 1448.48 149.04C1462.59 149.04 1474.54 151.638 1484.35 156.833C1494.26 161.937 1501.27 169.361 1505.36 179.103C1507.26 183.465 1508.51 188.336 1509.07 193.717C1509.65 199.099 1509.93 204.574 1509.93 210.141V298.315C1509.93 301.197 1507.6 303.534 1504.72 303.534H1496.44C1493.55 303.534 1491.21 301.197 1491.21 298.315V269.333C1491.21 267.654 1492.92 266.514 1494.47 267.15C1495.67 267.643 1496.25 269.018 1495.73 270.207C1490.47 282.046 1482.63 291.159 1472.21 297.549C1461.16 304.323 1447.92 307.709 1432.48 307.709ZM1434.91 290.033C1444.72 290.033 1453.3 288.316 1460.64 284.883C1467.97 281.45 1473.88 276.765 1478.35 270.826C1482.83 264.794 1485.74 258.021 1487.07 250.505C1488.21 245.68 1488.83 240.391 1488.93 234.637C1488.99 230.543 1489.03 227.176 1489.06 224.538C1489.07 223.17 1490.52 222.282 1491.73 222.898C1493.36 223.714 1492.93 226.121 1491.14 226.344C1485.68 227.021 1479.9 227.698 1473.78 228.375C1465.49 229.302 1457.3 230.369 1449.2 231.576C1441.19 232.782 1433.95 234.22 1427.48 235.891C1423.1 237.096 1418.86 238.814 1414.76 241.04C1410.66 243.174 1407.28 246.051 1404.61 249.67C1402.04 253.289 1400.75 257.789 1400.75 263.171C1400.75 267.531 1401.85 271.753 1404.04 275.836C1406.33 279.919 1409.95 283.305 1414.9 285.996C1419.95 288.687 1426.62 290.033 1434.91 290.033Z" fill="black"/>
<path d="M1546.64 303.535C1543.76 303.535 1541.42 301.197 1541.42 298.315V158.435C1541.42 155.552 1543.76 153.215 1546.64 153.215H1555.06C1557.95 153.215 1560.28 155.552 1560.28 158.435V184.374C1560.28 186.026 1558.2 186.747 1557.18 185.448C1556.8 184.966 1556.7 184.32 1556.93 183.752C1558.6 179.655 1560.72 175.878 1563.29 172.422C1566.04 168.618 1569.05 165.51 1572.29 163.097C1576.29 159.664 1580.95 157.067 1586.3 155.303C1591.63 153.447 1597.01 152.38 1602.44 152.102C1606.3 151.837 1609.91 151.949 1613.29 152.435C1615.67 152.777 1617.31 154.899 1617.31 157.296V165.753C1617.31 169.144 1614.11 171.635 1610.73 171.305C1606.99 170.937 1603.03 170.985 1598.86 171.449C1592.2 172.191 1586.06 174.788 1580.43 179.243C1575.29 183.14 1571.43 187.825 1568.86 193.3C1566.28 198.682 1564.57 204.434 1563.71 210.558C1562.85 216.591 1562.43 222.575 1562.43 228.513V298.315C1562.43 301.197 1560.09 303.535 1557.21 303.535H1546.64Z" fill="black"/>
<path d="M1690.7 307.57C1672.61 307.57 1657.7 303.766 1645.97 296.157C1635.89 289.558 1629.18 280.726 1625.84 269.661C1624.98 266.836 1626.96 264.032 1629.87 263.558L1641.32 261.7C1643.96 261.27 1646.46 262.936 1647.49 265.406C1650.24 271.89 1654.91 277.222 1661.56 281.403C1669.74 286.415 1679.85 288.919 1691.84 288.919C1703.56 288.919 1712.8 286.553 1719.57 281.821C1726.33 276.996 1729.72 270.454 1729.72 262.196C1729.72 257.557 1728.62 253.799 1726.43 250.922C1724.34 247.952 1720 245.216 1713.43 242.71C1706.85 240.204 1697.05 237.236 1683.99 233.802C1669.98 230.091 1659.03 226.379 1651.11 222.668C1643.21 218.956 1637.59 214.688 1634.25 209.863C1630.92 204.945 1629.25 198.961 1629.25 191.908C1629.25 183.371 1631.74 175.902 1636.68 169.5C1641.64 163.004 1648.5 157.994 1657.26 154.467C1666.02 150.849 1676.23 149.04 1687.84 149.04C1699.46 149.04 1709.85 150.896 1718.99 154.607C1728.24 158.225 1735.67 163.329 1741.3 169.917C1745.85 175.25 1748.89 181.281 1750.44 188.013C1751.08 190.715 1749.16 193.258 1746.43 193.737L1735.06 195.728C1732.2 196.23 1729.52 194.268 1728.61 191.509C1726.47 185.08 1722.36 179.832 1716.28 175.763C1708.76 170.567 1699.18 167.876 1687.56 167.691C1676.61 167.412 1667.69 169.453 1660.84 173.814C1653.98 178.083 1650.55 183.79 1650.55 190.934C1650.55 194.924 1651.79 198.357 1654.26 201.233C1656.74 204.017 1661.22 206.662 1667.69 209.168C1674.26 211.672 1683.6 214.41 1695.7 217.379C1709.91 220.905 1721.04 224.617 1729.14 228.513C1737.24 232.411 1743.01 237.003 1746.44 242.293C1749.86 247.582 1751.59 254.123 1751.59 261.917C1751.59 276.114 1746.15 287.295 1735.29 295.462C1724.52 303.534 1709.67 307.57 1690.7 307.57Z" fill="black"/>
<path d="M1005.67 303.536C1004.45 303.536 1003.47 302.576 1003.47 301.395V105.252C1003.47 104.069 1004.45 103.11 1005.67 103.11H1082.92C1084.92 103.11 1087.16 103.203 1089.64 103.389C1092.21 103.481 1094.78 103.76 1097.35 104.224C1108.12 105.801 1117.22 109.466 1124.65 115.219C1132.18 120.879 1137.84 128.024 1141.66 136.654C1145.56 145.284 1147.52 154.841 1147.52 165.326C1147.52 175.718 1145.56 185.229 1141.66 193.858C1137.75 202.488 1132.03 209.679 1124.51 215.432C1117.08 221.092 1108.03 224.71 1097.35 226.289C1094.78 226.659 1092.21 226.938 1089.64 227.123C1087.16 227.309 1084.92 227.401 1082.92 227.401H1026.67C1025.46 227.401 1024.47 228.361 1024.47 229.542V301.395C1024.47 302.576 1023.49 303.536 1022.28 303.536H1005.67ZM1024.47 205.774C1024.47 206.957 1025.46 207.915 1026.67 207.915H1082.35C1084.06 207.915 1086.07 207.824 1088.35 207.637C1090.64 207.452 1092.88 207.127 1095.07 206.663C1102.12 205.179 1107.88 202.348 1112.36 198.173C1116.93 193.997 1120.32 189.033 1122.51 183.28C1124.79 177.527 1125.94 171.542 1125.94 165.326C1125.94 159.109 1124.79 153.123 1122.51 147.371C1120.32 141.526 1116.93 136.514 1112.36 132.339C1107.88 128.163 1102.12 125.333 1095.07 123.849C1092.88 123.385 1090.64 123.106 1088.35 123.014C1086.07 122.828 1084.06 122.735 1082.35 122.735H1026.67C1025.46 122.735 1024.47 123.694 1024.47 124.877V205.774Z" fill="black"/>
</mask>
<g mask="url(#mask0_176_75)">
<path d="M1228.36 307.709C1213.02 307.709 1199.92 304.323 1189.06 297.549C1178.2 290.775 1169.86 281.403 1164.05 269.434C1158.24 257.464 1155.33 243.731 1155.33 228.235C1155.33 212.461 1158.29 198.635 1164.19 186.758C1170.1 174.882 1178.48 165.648 1189.34 159.061C1200.3 152.38 1213.3 149.04 1228.36 149.04C1243.79 149.04 1256.94 152.427 1267.8 159.201C1278.75 165.881 1287.09 175.207 1292.81 187.176C1298.62 199.052 1301.52 212.739 1301.52 228.235C1301.52 244.009 1298.62 257.881 1292.81 269.852C1287 281.728 1278.61 291.007 1267.66 297.688C1256.7 304.368 1243.6 307.709 1228.36 307.709ZM1228.36 288.084C1245.5 288.084 1258.27 282.563 1266.65 271.521C1275.04 260.387 1279.23 245.958 1279.23 228.235C1279.23 210.048 1274.99 195.573 1266.51 184.81C1258.13 174.046 1245.41 168.664 1228.36 168.664C1216.83 168.664 1207.3 171.217 1199.78 176.319C1192.34 181.331 1186.77 188.336 1183.06 197.337C1179.44 206.245 1177.62 216.544 1177.62 228.235C1177.62 246.33 1181.91 260.85 1190.49 271.799C1199.06 282.657 1211.68 288.084 1228.36 288.084Z" stroke="#0075FF" stroke-width="0.369297" stroke-linejoin="round"/>
</g>
<mask id="mask1_176_75" style="mask-type:luminance" maskUnits="userSpaceOnUse" x="989" y="84" width="778" height="227">
<path d="M1766.67 84.8H989.333V310.933H1766.67V84.8Z" fill="white"/>
<path d="M1228.36 307.709C1213.02 307.709 1199.92 304.323 1189.06 297.549C1178.2 290.775 1169.86 281.403 1164.05 269.434C1158.24 257.464 1155.33 243.731 1155.33 228.235C1155.33 212.461 1158.29 198.635 1164.19 186.758C1170.1 174.882 1178.48 165.648 1189.34 159.061C1200.3 152.38 1213.3 149.04 1228.36 149.04C1243.79 149.04 1256.94 152.427 1267.8 159.201C1278.75 165.881 1287.09 175.207 1292.81 187.176C1298.62 199.052 1301.52 212.739 1301.52 228.235C1301.52 244.009 1298.62 257.881 1292.81 269.852C1287 281.728 1278.61 291.007 1267.66 297.688C1256.7 304.368 1243.6 307.709 1228.36 307.709ZM1228.36 288.084C1245.5 288.084 1258.27 282.563 1266.65 271.521C1275.04 260.387 1279.23 245.958 1279.23 228.235C1279.23 210.048 1274.99 195.573 1266.51 184.81C1258.13 174.046 1245.41 168.664 1228.36 168.664C1216.83 168.664 1207.3 171.217 1199.78 176.319C1192.34 181.331 1186.77 188.336 1183.06 197.337C1179.44 206.245 1177.62 216.544 1177.62 228.235C1177.62 246.33 1181.91 260.85 1190.49 271.799C1199.06 282.657 1211.68 288.084 1228.36 288.084Z" fill="black"/>
<path d="M1335.41 303.534C1332.53 303.534 1330.19 301.197 1330.19 298.315V104.153C1330.19 101.27 1332.53 98.9333 1335.41 98.9333H1345.98C1348.86 98.9333 1351.2 101.27 1351.2 104.153V298.315C1351.2 301.197 1348.86 303.534 1345.98 303.534H1335.41Z" fill="black"/>
<path d="M1432.48 307.709C1420.85 307.709 1411.09 305.669 1403.18 301.585C1395.37 297.502 1389.51 292.074 1385.61 285.301C1381.7 278.527 1379.75 271.151 1379.75 263.171C1379.75 255.005 1381.41 248.046 1384.75 242.293C1388.18 236.448 1392.8 231.668 1398.61 227.956C1404.52 224.245 1411.33 221.416 1419.04 219.467C1426.86 217.611 1435.48 215.987 1444.91 214.595C1454.43 213.111 1463.73 211.859 1472.78 210.837C1479.25 210.05 1485.14 209.285 1490.47 208.543C1491.84 208.352 1492.51 210.201 1491.32 210.914C1490.46 211.426 1489.37 210.796 1489.37 209.801C1489.33 196.108 1486.36 185.876 1480.49 179.103C1474.3 171.959 1463.53 168.386 1448.2 168.386C1437.63 168.386 1428.67 170.705 1421.33 175.345C1415.33 179.194 1410.8 184.894 1407.74 192.445C1406.67 195.102 1403.82 196.701 1401.06 195.912L1390.51 192.894C1387.79 192.114 1386.16 189.288 1387.09 186.608C1390.95 175.485 1397.56 166.674 1406.9 160.174C1417.57 152.752 1431.44 149.04 1448.48 149.04C1462.59 149.04 1474.54 151.638 1484.35 156.833C1494.26 161.937 1501.27 169.361 1505.36 179.103C1507.26 183.465 1508.51 188.336 1509.07 193.717C1509.65 199.099 1509.93 204.574 1509.93 210.141V298.315C1509.93 301.197 1507.6 303.534 1504.72 303.534H1496.44C1493.55 303.534 1491.21 301.197 1491.21 298.315V269.333C1491.21 267.654 1492.92 266.514 1494.47 267.15C1495.67 267.643 1496.25 269.018 1495.73 270.207C1490.47 282.046 1482.63 291.159 1472.21 297.549C1461.16 304.323 1447.92 307.709 1432.48 307.709ZM1434.91 290.033C1444.72 290.033 1453.3 288.316 1460.64 284.883C1467.97 281.45 1473.88 276.765 1478.35 270.826C1482.83 264.794 1485.74 258.021 1487.07 250.505C1488.21 245.68 1488.83 240.391 1488.93 234.637C1488.99 230.543 1489.03 227.176 1489.06 224.538C1489.07 223.17 1490.52 222.282 1491.73 222.898C1493.36 223.714 1492.93 226.121 1491.14 226.344C1485.68 227.021 1479.9 227.698 1473.78 228.375C1465.49 229.302 1457.3 230.369 1449.2 231.576C1441.19 232.782 1433.95 234.22 1427.48 235.891C1423.1 237.096 1418.86 238.814 1414.76 241.04C1410.66 243.174 1407.28 246.051 1404.61 249.67C1402.04 253.289 1400.75 257.789 1400.75 263.171C1400.75 267.531 1401.85 271.753 1404.04 275.836C1406.33 279.919 1409.95 283.305 1414.9 285.996C1419.95 288.687 1426.62 290.033 1434.91 290.033Z" fill="black"/>
<path d="M1546.64 303.535C1543.76 303.535 1541.42 301.197 1541.42 298.315V158.435C1541.42 155.552 1543.76 153.215 1546.64 153.215H1555.06C1557.95 153.215 1560.28 155.552 1560.28 158.435V184.374C1560.28 186.026 1558.2 186.747 1557.18 185.448C1556.8 184.966 1556.7 184.32 1556.93 183.752C1558.6 179.655 1560.72 175.878 1563.29 172.422C1566.04 168.618 1569.05 165.51 1572.29 163.097C1576.29 159.664 1580.95 157.067 1586.3 155.303C1591.63 153.447 1597.01 152.38 1602.44 152.102C1606.3 151.837 1609.91 151.949 1613.29 152.435C1615.67 152.777 1617.31 154.899 1617.31 157.296V165.753C1617.31 169.144 1614.11 171.635 1610.73 171.305C1606.99 170.937 1603.03 170.985 1598.86 171.449C1592.2 172.191 1586.06 174.788 1580.43 179.243C1575.29 183.14 1571.43 187.825 1568.86 193.3C1566.28 198.682 1564.57 204.434 1563.71 210.558C1562.85 216.591 1562.43 222.575 1562.43 228.513V298.315C1562.43 301.197 1560.09 303.535 1557.21 303.535H1546.64Z" fill="black"/>
<path d="M1690.7 307.57C1672.61 307.57 1657.7 303.766 1645.97 296.157C1635.89 289.558 1629.18 280.726 1625.84 269.661C1624.98 266.836 1626.96 264.032 1629.87 263.558L1641.32 261.7C1643.96 261.27 1646.46 262.936 1647.49 265.406C1650.24 271.89 1654.91 277.222 1661.56 281.403C1669.74 286.415 1679.85 288.919 1691.84 288.919C1703.56 288.919 1712.8 286.553 1719.57 281.821C1726.33 276.996 1729.72 270.454 1729.72 262.196C1729.72 257.557 1728.62 253.799 1726.43 250.922C1724.34 247.952 1720 245.216 1713.43 242.71C1706.85 240.204 1697.05 237.236 1683.99 233.802C1669.98 230.091 1659.03 226.379 1651.11 222.668C1643.21 218.956 1637.59 214.688 1634.25 209.863C1630.92 204.945 1629.25 198.961 1629.25 191.908C1629.25 183.371 1631.74 175.902 1636.68 169.5C1641.64 163.004 1648.5 157.994 1657.26 154.467C1666.02 150.849 1676.23 149.04 1687.84 149.04C1699.46 149.04 1709.85 150.896 1718.99 154.607C1728.24 158.225 1735.67 163.329 1741.3 169.917C1745.85 175.25 1748.89 181.281 1750.44 188.013C1751.08 190.715 1749.16 193.258 1746.43 193.737L1735.06 195.728C1732.2 196.23 1729.52 194.268 1728.61 191.509C1726.47 185.08 1722.36 179.832 1716.28 175.763C1708.76 170.567 1699.18 167.876 1687.56 167.691C1676.61 167.412 1667.69 169.453 1660.84 173.814C1653.98 178.083 1650.55 183.79 1650.55 190.934C1650.55 194.924 1651.79 198.357 1654.26 201.233C1656.74 204.017 1661.22 206.662 1667.69 209.168C1674.26 211.672 1683.6 214.41 1695.7 217.379C1709.91 220.905 1721.04 224.617 1729.14 228.513C1737.24 232.411 1743.01 237.003 1746.44 242.293C1749.86 247.582 1751.59 254.123 1751.59 261.917C1751.59 276.114 1746.15 287.295 1735.29 295.462C1724.52 303.534 1709.67 307.57 1690.7 307.57Z" fill="black"/>
<path d="M1005.67 303.536C1004.45 303.536 1003.47 302.576 1003.47 301.395V105.252C1003.47 104.069 1004.45 103.11 1005.67 103.11H1082.92C1084.92 103.11 1087.16 103.203 1089.64 103.389C1092.21 103.481 1094.78 103.76 1097.35 104.224C1108.12 105.801 1117.22 109.466 1124.65 115.219C1132.18 120.879 1137.84 128.024 1141.66 136.654C1145.56 145.284 1147.52 154.841 1147.52 165.326C1147.52 175.718 1145.56 185.229 1141.66 193.858C1137.75 202.488 1132.03 209.679 1124.51 215.432C1117.08 221.092 1108.03 224.71 1097.35 226.289C1094.78 226.659 1092.21 226.938 1089.64 227.123C1087.16 227.309 1084.92 227.401 1082.92 227.401H1026.67C1025.46 227.401 1024.47 228.361 1024.47 229.542V301.395C1024.47 302.576 1023.49 303.536 1022.28 303.536H1005.67ZM1024.47 205.774C1024.47 206.957 1025.46 207.915 1026.67 207.915H1082.35C1084.06 207.915 1086.07 207.824 1088.35 207.637C1090.64 207.452 1092.88 207.127 1095.07 206.663C1102.12 205.179 1107.88 202.348 1112.36 198.173C1116.93 193.997 1120.32 189.033 1122.51 183.28C1124.79 177.527 1125.94 171.542 1125.94 165.326C1125.94 159.109 1124.79 153.123 1122.51 147.371C1120.32 141.526 1116.93 136.514 1112.36 132.339C1107.88 128.163 1102.12 125.333 1095.07 123.849C1092.88 123.385 1090.64 123.106 1088.35 123.014C1086.07 122.828 1084.06 122.735 1082.35 122.735H1026.67C1025.46 122.735 1024.47 123.694 1024.47 124.877V205.774Z" fill="black"/>
</mask>
<g mask="url(#mask1_176_75)">
<path d="M1335.41 303.534C1332.53 303.534 1330.19 301.197 1330.19 298.315V104.153C1330.19 101.27 1332.53 98.9333 1335.41 98.9333H1345.98C1348.86 98.9333 1351.2 101.27 1351.2 104.153V298.315C1351.2 301.197 1348.86 303.534 1345.98 303.534H1335.41Z" stroke="#0075FF" stroke-width="0.369297" stroke-linejoin="round"/>
</g>
<mask id="mask2_176_75" style="mask-type:luminance" maskUnits="userSpaceOnUse" x="989" y="84" width="778" height="227">
<path d="M1766.67 84.8H989.333V310.933H1766.67V84.8Z" fill="white"/>
<path d="M1228.36 307.709C1213.02 307.709 1199.92 304.323 1189.06 297.549C1178.2 290.775 1169.86 281.403 1164.05 269.434C1158.24 257.464 1155.33 243.731 1155.33 228.235C1155.33 212.461 1158.29 198.635 1164.19 186.758C1170.1 174.882 1178.48 165.648 1189.34 159.061C1200.3 152.38 1213.3 149.04 1228.36 149.04C1243.79 149.04 1256.94 152.427 1267.8 159.201C1278.75 165.881 1287.09 175.207 1292.81 187.176C1298.62 199.052 1301.52 212.739 1301.52 228.235C1301.52 244.009 1298.62 257.881 1292.81 269.852C1287 281.728 1278.61 291.007 1267.66 297.688C1256.7 304.368 1243.6 307.709 1228.36 307.709ZM1228.36 288.084C1245.5 288.084 1258.27 282.563 1266.65 271.521C1275.04 260.387 1279.23 245.958 1279.23 228.235C1279.23 210.048 1274.99 195.573 1266.51 184.81C1258.13 174.046 1245.41 168.664 1228.36 168.664C1216.83 168.664 1207.3 171.217 1199.78 176.319C1192.34 181.331 1186.77 188.336 1183.06 197.337C1179.44 206.245 1177.62 216.544 1177.62 228.235C1177.62 246.33 1181.91 260.85 1190.49 271.799C1199.06 282.657 1211.68 288.084 1228.36 288.084Z" fill="black"/>
<path d="M1335.41 303.534C1332.53 303.534 1330.19 301.197 1330.19 298.315V104.153C1330.19 101.27 1332.53 98.9333 1335.41 98.9333H1345.98C1348.86 98.9333 1351.2 101.27 1351.2 104.153V298.315C1351.2 301.197 1348.86 303.534 1345.98 303.534H1335.41Z" fill="black"/>
<path d="M1432.48 307.709C1420.85 307.709 1411.09 305.669 1403.18 301.585C1395.37 297.502 1389.51 292.074 1385.61 285.301C1381.7 278.527 1379.75 271.151 1379.75 263.171C1379.75 255.005 1381.41 248.046 1384.75 242.293C1388.18 236.448 1392.8 231.668 1398.61 227.956C1404.52 224.245 1411.33 221.416 1419.04 219.467C1426.86 217.611 1435.48 215.987 1444.91 214.595C1454.43 213.111 1463.73 211.859 1472.78 210.837C1479.25 210.05 1485.14 209.285 1490.47 208.543C1491.84 208.352 1492.51 210.201 1491.32 210.914C1490.46 211.426 1489.37 210.796 1489.37 209.801C1489.33 196.108 1486.36 185.876 1480.49 179.103C1474.3 171.959 1463.53 168.386 1448.2 168.386C1437.63 168.386 1428.67 170.705 1421.33 175.345C1415.33 179.194 1410.8 184.894 1407.74 192.445C1406.67 195.102 1403.82 196.701 1401.06 195.912L1390.51 192.894C1387.79 192.114 1386.16 189.288 1387.09 186.608C1390.95 175.485 1397.56 166.674 1406.9 160.174C1417.57 152.752 1431.44 149.04 1448.48 149.04C1462.59 149.04 1474.54 151.638 1484.35 156.833C1494.26 161.937 1501.27 169.361 1505.36 179.103C1507.26 183.465 1508.51 188.336 1509.07 193.717C1509.65 199.099 1509.93 204.574 1509.93 210.141V298.315C1509.93 301.197 1507.6 303.534 1504.72 303.534H1496.44C1493.55 303.534 1491.21 301.197 1491.21 298.315V269.333C1491.21 267.654 1492.92 266.514 1494.47 267.15C1495.67 267.643 1496.25 269.018 1495.73 270.207C1490.47 282.046 1482.63 291.159 1472.21 297.549C1461.16 304.323 1447.92 307.709 1432.48 307.709ZM1434.91 290.033C1444.72 290.033 1453.3 288.316 1460.64 284.883C1467.97 281.45 1473.88 276.765 1478.35 270.826C1482.83 264.794 1485.74 258.021 1487.07 250.505C1488.21 245.68 1488.83 240.391 1488.93 234.637C1488.99 230.543 1489.03 227.176 1489.06 224.538C1489.07 223.17 1490.52 222.282 1491.73 222.898C1493.36 223.714 1492.93 226.121 1491.14 226.344C1485.68 227.021 1479.9 227.698 1473.78 228.375C1465.49 229.302 1457.3 230.369 1449.2 231.576C1441.19 232.782 1433.95 234.22 1427.48 235.891C1423.1 237.096 1418.86 238.814 1414.76 241.04C1410.66 243.174 1407.28 246.051 1404.61 249.67C1402.04 253.289 1400.75 257.789 1400.75 263.171C1400.75 267.531 1401.85 271.753 1404.04 275.836C1406.33 279.919 1409.95 283.305 1414.9 285.996C1419.95 288.687 1426.62 290.033 1434.91 290.033Z" fill="black"/>
<path d="M1546.64 303.535C1543.76 303.535 1541.42 301.197 1541.42 298.315V158.435C1541.42 155.552 1543.76 153.215 1546.64 153.215H1555.06C1557.95 153.215 1560.28 155.552 1560.28 158.435V184.374C1560.28 186.026 1558.2 186.747 1557.18 185.448C1556.8 184.966 1556.7 184.32 1556.93 183.752C1558.6 179.655 1560.72 175.878 1563.29 172.422C1566.04 168.618 1569.05 165.51 1572.29 163.097C1576.29 159.664 1580.95 157.067 1586.3 155.303C1591.63 153.447 1597.01 152.38 1602.44 152.102C1606.3 151.837 1609.91 151.949 1613.29 152.435C1615.67 152.777 1617.31 154.899 1617.31 157.296V165.753C1617.31 169.144 1614.11 171.635 1610.73 171.305C1606.99 170.937 1603.03 170.985 1598.86 171.449C1592.2 172.191 1586.06 174.788 1580.43 179.243C1575.29 183.14 1571.43 187.825 1568.86 193.3C1566.28 198.682 1564.57 204.434 1563.71 210.558C1562.85 216.591 1562.43 222.575 1562.43 228.513V298.315C1562.43 301.197 1560.09 303.535 1557.21 303.535H1546.64Z" fill="black"/>
<path d="M1690.7 307.57C1672.61 307.57 1657.7 303.766 1645.97 296.157C1635.89 289.558 1629.18 280.726 1625.84 269.661C1624.98 266.836 1626.96 264.032 1629.87 263.558L1641.32 261.7C1643.96 261.27 1646.46 262.936 1647.49 265.406C1650.24 271.89 1654.91 277.222 1661.56 281.403C1669.74 286.415 1679.85 288.919 1691.84 288.919C1703.56 288.919 1712.8 286.553 1719.57 281.821C1726.33 276.996 1729.72 270.454 1729.72 262.196C1729.72 257.557 1728.62 253.799 1726.43 250.922C1724.34 247.952 1720 245.216 1713.43 242.71C1706.85 240.204 1697.05 237.236 1683.99 233.802C1669.98 230.091 1659.03 226.379 1651.11 222.668C1643.21 218.956 1637.59 214.688 1634.25 209.863C1630.92 204.945 1629.25 198.961 1629.25 191.908C1629.25 183.371 1631.74 175.902 1636.68 169.5C1641.64 163.004 1648.5 157.994 1657.26 154.467C1666.02 150.849 1676.23 149.04 1687.84 149.04C1699.46 149.04 1709.85 150.896 1718.99 154.607C1728.24 158.225 1735.67 163.329 1741.3 169.917C1745.85 175.25 1748.89 181.281 1750.44 188.013C1751.08 190.715 1749.16 193.258 1746.43 193.737L1735.06 195.728C1732.2 196.23 1729.52 194.268 1728.61 191.509C1726.47 185.08 1722.36 179.832 1716.28 175.763C1708.76 170.567 1699.18 167.876 1687.56 167.691C1676.61 167.412 1667.69 169.453 1660.84 173.814C1653.98 178.083 1650.55 183.79 1650.55 190.934C1650.55 194.924 1651.79 198.357 1654.26 201.233C1656.74 204.017 1661.22 206.662 1667.69 209.168C1674.26 211.672 1683.6 214.41 1695.7 217.379C1709.91 220.905 1721.04 224.617 1729.14 228.513C1737.24 232.411 1743.01 237.003 1746.44 242.293C1749.86 247.582 1751.59 254.123 1751.59 261.917C1751.59 276.114 1746.15 287.295 1735.29 295.462C1724.52 303.534 1709.67 307.57 1690.7 307.57Z" fill="black"/>
<path d="M1005.67 303.536C1004.45 303.536 1003.47 302.576 1003.47 301.395V105.252C1003.47 104.069 1004.45 103.11 1005.67 103.11H1082.92C1084.92 103.11 1087.16 103.203 1089.64 103.389C1092.21 103.481 1094.78 103.76 1097.35 104.224C1108.12 105.801 1117.22 109.466 1124.65 115.219C1132.18 120.879 1137.84 128.024 1141.66 136.654C1145.56 145.284 1147.52 154.841 1147.52 165.326C1147.52 175.718 1145.56 185.229 1141.66 193.858C1137.75 202.488 1132.03 209.679 1124.51 215.432C1117.08 221.092 1108.03 224.71 1097.35 226.289C1094.78 226.659 1092.21 226.938 1089.64 227.123C1087.16 227.309 1084.92 227.401 1082.92 227.401H1026.67C1025.46 227.401 1024.47 228.361 1024.47 229.542V301.395C1024.47 302.576 1023.49 303.536 1022.28 303.536H1005.67ZM1024.47 205.774C1024.47 206.957 1025.46 207.915 1026.67 207.915H1082.35C1084.06 207.915 1086.07 207.824 1088.35 207.637C1090.64 207.452 1092.88 207.127 1095.07 206.663C1102.12 205.179 1107.88 202.348 1112.36 198.173C1116.93 193.997 1120.32 189.033 1122.51 183.28C1124.79 177.527 1125.94 171.542 1125.94 165.326C1125.94 159.109 1124.79 153.123 1122.51 147.371C1120.32 141.526 1116.93 136.514 1112.36 132.339C1107.88 128.163 1102.12 125.333 1095.07 123.849C1092.88 123.385 1090.64 123.106 1088.35 123.014C1086.07 122.828 1084.06 122.735 1082.35 122.735H1026.67C1025.46 122.735 1024.47 123.694 1024.47 124.877V205.774Z" fill="black"/>
</mask>
<g mask="url(#mask2_176_75)">
<path d="M1432.48 307.709C1420.85 307.709 1411.09 305.669 1403.18 301.585C1395.37 297.502 1389.51 292.074 1385.61 285.301C1381.7 278.527 1379.75 271.151 1379.75 263.171C1379.75 255.005 1381.41 248.046 1384.75 242.293C1388.18 236.448 1392.8 231.668 1398.61 227.956C1404.52 224.245 1411.33 221.416 1419.04 219.467C1426.86 217.611 1435.48 215.987 1444.91 214.595C1454.43 213.111 1463.73 211.859 1472.78 210.837C1479.25 210.05 1485.14 209.285 1490.47 208.543C1491.84 208.352 1492.51 210.201 1491.32 210.914C1490.46 211.426 1489.37 210.796 1489.37 209.801C1489.33 196.108 1486.36 185.876 1480.49 179.103C1474.3 171.959 1463.53 168.386 1448.2 168.386C1437.63 168.386 1428.67 170.705 1421.33 175.345C1415.33 179.194 1410.8 184.894 1407.74 192.445C1406.67 195.102 1403.82 196.701 1401.06 195.912L1390.51 192.894C1387.79 192.114 1386.16 189.288 1387.09 186.608C1390.95 175.485 1397.56 166.674 1406.9 160.174C1417.57 152.752 1431.44 149.04 1448.48 149.04C1462.59 149.04 1474.54 151.638 1484.35 156.833C1494.26 161.937 1501.27 169.361 1505.36 179.103C1507.26 183.465 1508.51 188.336 1509.07 193.717C1509.65 199.099 1509.93 204.574 1509.93 210.141V298.315C1509.93 301.197 1507.6 303.534 1504.72 303.534H1496.44C1493.55 303.534 1491.21 301.197 1491.21 298.315V269.333C1491.21 267.654 1492.92 266.514 1494.47 267.15C1495.67 267.643 1496.25 269.018 1495.73 270.207C1490.47 282.046 1482.63 291.159 1472.21 297.549C1461.16 304.323 1447.92 307.709 1432.48 307.709ZM1434.91 290.033C1444.72 290.033 1453.3 288.316 1460.64 284.883C1467.97 281.45 1473.88 276.765 1478.35 270.826C1482.83 264.794 1485.74 258.021 1487.07 250.505C1488.21 245.68 1488.83 240.391 1488.93 234.637C1488.99 230.543 1489.03 227.176 1489.06 224.538C1489.07 223.17 1490.52 222.282 1491.73 222.898C1493.36 223.714 1492.93 226.121 1491.14 226.344C1485.68 227.021 1479.9 227.698 1473.78 228.375C1465.49 229.302 1457.3 230.369 1449.2 231.576C1441.19 232.782 1433.95 234.22 1427.48 235.891C1423.1 237.096 1418.86 238.814 1414.76 241.04C1410.66 243.174 1407.28 246.051 1404.61 249.67C1402.04 253.289 1400.75 257.789 1400.75 263.171C1400.75 267.531 1401.85 271.753 1404.04 275.836C1406.33 279.919 1409.95 283.305 1414.9 285.996C1419.95 288.687 1426.62 290.033 1434.91 290.033Z" stroke="#0075FF" stroke-width="0.369297" stroke-linejoin="round"/>
</g>
<mask id="mask3_176_75" style="mask-type:luminance" maskUnits="userSpaceOnUse" x="989" y="84" width="778" height="227">
<path d="M1766.67 84.8H989.333V310.933H1766.67V84.8Z" fill="white"/>
<path d="M1228.36 307.709C1213.02 307.709 1199.92 304.323 1189.06 297.549C1178.2 290.775 1169.86 281.403 1164.05 269.434C1158.24 257.464 1155.33 243.731 1155.33 228.235C1155.33 212.461 1158.29 198.635 1164.19 186.758C1170.1 174.882 1178.48 165.648 1189.34 159.061C1200.3 152.38 1213.3 149.04 1228.36 149.04C1243.79 149.04 1256.94 152.427 1267.8 159.201C1278.75 165.881 1287.09 175.207 1292.81 187.176C1298.62 199.052 1301.52 212.739 1301.52 228.235C1301.52 244.009 1298.62 257.881 1292.81 269.852C1287 281.728 1278.61 291.007 1267.66 297.688C1256.7 304.368 1243.6 307.709 1228.36 307.709ZM1228.36 288.084C1245.5 288.084 1258.27 282.563 1266.65 271.521C1275.04 260.387 1279.23 245.958 1279.23 228.235C1279.23 210.048 1274.99 195.573 1266.51 184.81C1258.13 174.046 1245.41 168.664 1228.36 168.664C1216.83 168.664 1207.3 171.217 1199.78 176.319C1192.34 181.331 1186.77 188.336 1183.06 197.337C1179.44 206.245 1177.62 216.544 1177.62 228.235C1177.62 246.33 1181.91 260.85 1190.49 271.799C1199.06 282.657 1211.68 288.084 1228.36 288.084Z" fill="black"/>
<path d="M1335.41 303.534C1332.53 303.534 1330.19 301.197 1330.19 298.315V104.153C1330.19 101.27 1332.53 98.9333 1335.41 98.9333H1345.98C1348.86 98.9333 1351.2 101.27 1351.2 104.153V298.315C1351.2 301.197 1348.86 303.534 1345.98 303.534H1335.41Z" fill="black"/>
<path d="M1432.48 307.709C1420.85 307.709 1411.09 305.669 1403.18 301.585C1395.37 297.502 1389.51 292.074 1385.61 285.301C1381.7 278.527 1379.75 271.151 1379.75 263.171C1379.75 255.005 1381.41 248.046 1384.75 242.293C1388.18 236.448 1392.8 231.668 1398.61 227.956C1404.52 224.245 1411.33 221.416 1419.04 219.467C1426.86 217.611 1435.48 215.987 1444.91 214.595C1454.43 213.111 1463.73 211.859 1472.78 210.837C1479.25 210.05 1485.14 209.285 1490.47 208.543C1491.84 208.352 1492.51 210.201 1491.32 210.914C1490.46 211.426 1489.37 210.796 1489.37 209.801C1489.33 196.108 1486.36 185.876 1480.49 179.103C1474.3 171.959 1463.53 168.386 1448.2 168.386C1437.63 168.386 1428.67 170.705 1421.33 175.345C1415.33 179.194 1410.8 184.894 1407.74 192.445C1406.67 195.102 1403.82 196.701 1401.06 195.912L1390.51 192.894C1387.79 192.114 1386.16 189.288 1387.09 186.608C1390.95 175.485 1397.56 166.674 1406.9 160.174C1417.57 152.752 1431.44 149.04 1448.48 149.04C1462.59 149.04 1474.54 151.638 1484.35 156.833C1494.26 161.937 1501.27 169.361 1505.36 179.103C1507.26 183.465 1508.51 188.336 1509.07 193.717C1509.65 199.099 1509.93 204.574 1509.93 210.141V298.315C1509.93 301.197 1507.6 303.534 1504.72 303.534H1496.44C1493.55 303.534 1491.21 301.197 1491.21 298.315V269.333C1491.21 267.654 1492.92 266.514 1494.47 267.15C1495.67 267.643 1496.25 269.018 1495.73 270.207C1490.47 282.046 1482.63 291.159 1472.21 297.549C1461.16 304.323 1447.92 307.709 1432.48 307.709ZM1434.91 290.033C1444.72 290.033 1453.3 288.316 1460.64 284.883C1467.97 281.45 1473.88 276.765 1478.35 270.826C1482.83 264.794 1485.74 258.021 1487.07 250.505C1488.21 245.68 1488.83 240.391 1488.93 234.637C1488.99 230.543 1489.03 227.176 1489.06 224.538C1489.07 223.17 1490.52 222.282 1491.73 222.898C1493.36 223.714 1492.93 226.121 1491.14 226.344C1485.68 227.021 1479.9 227.698 1473.78 228.375C1465.49 229.302 1457.3 230.369 1449.2 231.576C1441.19 232.782 1433.95 234.22 1427.48 235.891C1423.1 237.096 1418.86 238.814 1414.76 241.04C1410.66 243.174 1407.28 246.051 1404.61 249.67C1402.04 253.289 1400.75 257.789 1400.75 263.171C1400.75 267.531 1401.85 271.753 1404.04 275.836C1406.33 279.919 1409.95 283.305 1414.9 285.996C1419.95 288.687 1426.62 290.033 1434.91 290.033Z" fill="black"/>
<path d="M1546.64 303.535C1543.76 303.535 1541.42 301.197 1541.42 298.315V158.435C1541.42 155.552 1543.76 153.215 1546.64 153.215H1555.06C1557.95 153.215 1560.28 155.552 1560.28 158.435V184.374C1560.28 186.026 1558.2 186.747 1557.18 185.448C1556.8 184.966 1556.7 184.32 1556.93 183.752C1558.6 179.655 1560.72 175.878 1563.29 172.422C1566.04 168.618 1569.05 165.51 1572.29 163.097C1576.29 159.664 1580.95 157.067 1586.3 155.303C1591.63 153.447 1597.01 152.38 1602.44 152.102C1606.3 151.837 1609.91 151.949 1613.29 152.435C1615.67 152.777 1617.31 154.899 1617.31 157.296V165.753C1617.31 169.144 1614.11 171.635 1610.73 171.305C1606.99 170.937 1603.03 170.985 1598.86 171.449C1592.2 172.191 1586.06 174.788 1580.43 179.243C1575.29 183.14 1571.43 187.825 1568.86 193.3C1566.28 198.682 1564.57 204.434 1563.71 210.558C1562.85 216.591 1562.43 222.575 1562.43 228.513V298.315C1562.43 301.197 1560.09 303.535 1557.21 303.535H1546.64Z" fill="black"/>
<path d="M1690.7 307.57C1672.61 307.57 1657.7 303.766 1645.97 296.157C1635.89 289.558 1629.18 280.726 1625.84 269.661C1624.98 266.836 1626.96 264.032 1629.87 263.558L1641.32 261.7C1643.96 261.27 1646.46 262.936 1647.49 265.406C1650.24 271.89 1654.91 277.222 1661.56 281.403C1669.74 286.415 1679.85 288.919 1691.84 288.919C1703.56 288.919 1712.8 286.553 1719.57 281.821C1726.33 276.996 1729.72 270.454 1729.72 262.196C1729.72 257.557 1728.62 253.799 1726.43 250.922C1724.34 247.952 1720 245.216 1713.43 242.71C1706.85 240.204 1697.05 237.236 1683.99 233.802C1669.98 230.091 1659.03 226.379 1651.11 222.668C1643.21 218.956 1637.59 214.688 1634.25 209.863C1630.92 204.945 1629.25 198.961 1629.25 191.908C1629.25 183.371 1631.74 175.902 1636.68 169.5C1641.64 163.004 1648.5 157.994 1657.26 154.467C1666.02 150.849 1676.23 149.04 1687.84 149.04C1699.46 149.04 1709.85 150.896 1718.99 154.607C1728.24 158.225 1735.67 163.329 1741.3 169.917C1745.85 175.25 1748.89 181.281 1750.44 188.013C1751.08 190.715 1749.16 193.258 1746.43 193.737L1735.06 195.728C1732.2 196.23 1729.52 194.268 1728.61 191.509C1726.47 185.08 1722.36 179.832 1716.28 175.763C1708.76 170.567 1699.18 167.876 1687.56 167.691C1676.61 167.412 1667.69 169.453 1660.84 173.814C1653.98 178.083 1650.55 183.79 1650.55 190.934C1650.55 194.924 1651.79 198.357 1654.26 201.233C1656.74 204.017 1661.22 206.662 1667.69 209.168C1674.26 211.672 1683.6 214.41 1695.7 217.379C1709.91 220.905 1721.04 224.617 1729.14 228.513C1737.24 232.411 1743.01 237.003 1746.44 242.293C1749.86 247.582 1751.59 254.123 1751.59 261.917C1751.59 276.114 1746.15 287.295 1735.29 295.462C1724.52 303.534 1709.67 307.57 1690.7 307.57Z" fill="black"/>
<path d="M1005.67 303.536C1004.45 303.536 1003.47 302.576 1003.47 301.395V105.252C1003.47 104.069 1004.45 103.11 1005.67 103.11H1082.92C1084.92 103.11 1087.16 103.203 1089.64 103.389C1092.21 103.481 1094.78 103.76 1097.35 104.224C1108.12 105.801 1117.22 109.466 1124.65 115.219C1132.18 120.879 1137.84 128.024 1141.66 136.654C1145.56 145.284 1147.52 154.841 1147.52 165.326C1147.52 175.718 1145.56 185.229 1141.66 193.858C1137.75 202.488 1132.03 209.679 1124.51 215.432C1117.08 221.092 1108.03 224.71 1097.35 226.289C1094.78 226.659 1092.21 226.938 1089.64 227.123C1087.16 227.309 1084.92 227.401 1082.92 227.401H1026.67C1025.46 227.401 1024.47 228.361 1024.47 229.542V301.395C1024.47 302.576 1023.49 303.536 1022.28 303.536H1005.67ZM1024.47 205.774C1024.47 206.957 1025.46 207.915 1026.67 207.915H1082.35C1084.06 207.915 1086.07 207.824 1088.35 207.637C1090.64 207.452 1092.88 207.127 1095.07 206.663C1102.12 205.179 1107.88 202.348 1112.36 198.173C1116.93 193.997 1120.32 189.033 1122.51 183.28C1124.79 177.527 1125.94 171.542 1125.94 165.326C1125.94 159.109 1124.79 153.123 1122.51 147.371C1120.32 141.526 1116.93 136.514 1112.36 132.339C1107.88 128.163 1102.12 125.333 1095.07 123.849C1092.88 123.385 1090.64 123.106 1088.35 123.014C1086.07 122.828 1084.06 122.735 1082.35 122.735H1026.67C1025.46 122.735 1024.47 123.694 1024.47 124.877V205.774Z" fill="black"/>
</mask>
<g mask="url(#mask3_176_75)">
<path d="M1546.64 303.535C1543.76 303.535 1541.42 301.197 1541.42 298.315V158.435C1541.42 155.552 1543.76 153.215 1546.64 153.215H1555.06C1557.95 153.215 1560.28 155.552 1560.28 158.435V184.374C1560.28 186.026 1558.2 186.747 1557.18 185.448C1556.8 184.966 1556.7 184.32 1556.93 183.752C1558.6 179.655 1560.72 175.878 1563.29 172.422C1566.04 168.618 1569.05 165.51 1572.29 163.097C1576.29 159.664 1580.95 157.067 1586.3 155.303C1591.63 153.447 1597.01 152.38 1602.44 152.102C1606.3 151.837 1609.91 151.949 1613.29 152.435C1615.67 152.777 1617.31 154.899 1617.31 157.296V165.753C1617.31 169.144 1614.11 171.635 1610.73 171.305C1606.99 170.937 1603.03 170.985 1598.86 171.449C1592.2 172.191 1586.06 174.788 1580.43 179.243C1575.29 183.14 1571.43 187.825 1568.86 193.3C1566.28 198.682 1564.57 204.434 1563.71 210.558C1562.85 216.591 1562.43 222.575 1562.43 228.513V298.315C1562.43 301.197 1560.09 303.535 1557.21 303.535H1546.64Z" stroke="#0075FF" stroke-width="0.369297" stroke-linejoin="round"/>
</g>
<mask id="mask4_176_75" style="mask-type:luminance" maskUnits="userSpaceOnUse" x="989" y="84" width="778" height="227">
<path d="M1766.67 84.8H989.333V310.933H1766.67V84.8Z" fill="white"/>
<path d="M1228.36 307.709C1213.02 307.709 1199.92 304.323 1189.06 297.549C1178.2 290.775 1169.86 281.403 1164.05 269.434C1158.24 257.464 1155.33 243.731 1155.33 228.235C1155.33 212.461 1158.29 198.635 1164.19 186.758C1170.1 174.882 1178.48 165.648 1189.34 159.061C1200.3 152.38 1213.3 149.04 1228.36 149.04C1243.79 149.04 1256.94 152.427 1267.8 159.201C1278.75 165.881 1287.09 175.207 1292.81 187.176C1298.62 199.052 1301.52 212.739 1301.52 228.235C1301.52 244.009 1298.62 257.881 1292.81 269.852C1287 281.728 1278.61 291.007 1267.66 297.688C1256.7 304.368 1243.6 307.709 1228.36 307.709ZM1228.36 288.084C1245.5 288.084 1258.27 282.563 1266.65 271.521C1275.04 260.387 1279.23 245.958 1279.23 228.235C1279.23 210.048 1274.99 195.573 1266.51 184.81C1258.13 174.046 1245.41 168.664 1228.36 168.664C1216.83 168.664 1207.3 171.217 1199.78 176.319C1192.34 181.331 1186.77 188.336 1183.06 197.337C1179.44 206.245 1177.62 216.544 1177.62 228.235C1177.62 246.33 1181.91 260.85 1190.49 271.799C1199.06 282.657 1211.68 288.084 1228.36 288.084Z" fill="black"/>
<path d="M1335.41 303.534C1332.53 303.534 1330.19 301.197 1330.19 298.315V104.153C1330.19 101.27 1332.53 98.9333 1335.41 98.9333H1345.98C1348.86 98.9333 1351.2 101.27 1351.2 104.153V298.315C1351.2 301.197 1348.86 303.534 1345.98 303.534H1335.41Z" fill="black"/>
<path d="M1432.48 307.709C1420.85 307.709 1411.09 305.669 1403.18 301.585C1395.37 297.502 1389.51 292.074 1385.61 285.301C1381.7 278.527 1379.75 271.151 1379.75 263.171C1379.75 255.005 1381.41 248.046 1384.75 242.293C1388.18 236.448 1392.8 231.668 1398.61 227.956C1404.52 224.245 1411.33 221.416 1419.04 219.467C1426.86 217.611 1435.48 215.987 1444.91 214.595C1454.43 213.111 1463.73 211.859 1472.78 210.837C1479.25 210.05 1485.14 209.285 1490.47 208.543C1491.84 208.352 1492.51 210.201 1491.32 210.914C1490.46 211.426 1489.37 210.796 1489.37 209.801C1489.33 196.108 1486.36 185.876 1480.49 179.103C1474.3 171.959 1463.53 168.386 1448.2 168.386C1437.63 168.386 1428.67 170.705 1421.33 175.345C1415.33 179.194 1410.8 184.894 1407.74 192.445C1406.67 195.102 1403.82 196.701 1401.06 195.912L1390.51 192.894C1387.79 192.114 1386.16 189.288 1387.09 186.608C1390.95 175.485 1397.56 166.674 1406.9 160.174C1417.57 152.752 1431.44 149.04 1448.48 149.04C1462.59 149.04 1474.54 151.638 1484.35 156.833C1494.26 161.937 1501.27 169.361 1505.36 179.103C1507.26 183.465 1508.51 188.336 1509.07 193.717C1509.65 199.099 1509.93 204.574 1509.93 210.141V298.315C1509.93 301.197 1507.6 303.534 1504.72 303.534H1496.44C1493.55 303.534 1491.21 301.197 1491.21 298.315V269.333C1491.21 267.654 1492.92 266.514 1494.47 267.15C1495.67 267.643 1496.25 269.018 1495.73 270.207C1490.47 282.046 1482.63 291.159 1472.21 297.549C1461.16 304.323 1447.92 307.709 1432.48 307.709ZM1434.91 290.033C1444.72 290.033 1453.3 288.316 1460.64 284.883C1467.97 281.45 1473.88 276.765 1478.35 270.826C1482.83 264.794 1485.74 258.021 1487.07 250.505C1488.21 245.68 1488.83 240.391 1488.93 234.637C1488.99 230.543 1489.03 227.176 1489.06 224.538C1489.07 223.17 1490.52 222.282 1491.73 222.898C1493.36 223.714 1492.93 226.121 1491.14 226.344C1485.68 227.021 1479.9 227.698 1473.78 228.375C1465.49 229.302 1457.3 230.369 1449.2 231.576C1441.19 232.782 1433.95 234.22 1427.48 235.891C1423.1 237.096 1418.86 238.814 1414.76 241.04C1410.66 243.174 1407.28 246.051 1404.61 249.67C1402.04 253.289 1400.75 257.789 1400.75 263.171C1400.75 267.531 1401.85 271.753 1404.04 275.836C1406.33 279.919 1409.95 283.305 1414.9 285.996C1419.95 288.687 1426.62 290.033 1434.91 290.033Z" fill="black"/>
<path d="M1546.64 303.535C1543.76 303.535 1541.42 301.197 1541.42 298.315V158.435C1541.42 155.552 1543.76 153.215 1546.64 153.215H1555.06C1557.95 153.215 1560.28 155.552 1560.28 158.435V184.374C1560.28 186.026 1558.2 186.747 1557.18 185.448C1556.8 184.966 1556.7 184.32 1556.93 183.752C1558.6 179.655 1560.72 175.878 1563.29 172.422C1566.04 168.618 1569.05 165.51 1572.29 163.097C1576.29 159.664 1580.95 157.067 1586.3 155.303C1591.63 153.447 1597.01 152.38 1602.44 152.102C1606.3 151.837 1609.91 151.949 1613.29 152.435C1615.67 152.777 1617.31 154.899 1617.31 157.296V165.753C1617.31 169.144 1614.11 171.635 1610.73 171.305C1606.99 170.937 1603.03 170.985 1598.86 171.449C1592.2 172.191 1586.06 174.788 1580.43 179.243C1575.29 183.14 1571.43 187.825 1568.86 193.3C1566.28 198.682 1564.57 204.434 1563.71 210.558C1562.85 216.591 1562.43 222.575 1562.43 228.513V298.315C1562.43 301.197 1560.09 303.535 1557.21 303.535H1546.64Z" fill="black"/>
<path d="M1690.7 307.57C1672.61 307.57 1657.7 303.766 1645.97 296.157C1635.89 289.558 1629.18 280.726 1625.84 269.661C1624.98 266.836 1626.96 264.032 1629.87 263.558L1641.32 261.7C1643.96 261.27 1646.46 262.936 1647.49 265.406C1650.24 271.89 1654.91 277.222 1661.56 281.403C1669.74 286.415 1679.85 288.919 1691.84 288.919C1703.56 288.919 1712.8 286.553 1719.57 281.821C1726.33 276.996 1729.72 270.454 1729.72 262.196C1729.72 257.557 1728.62 253.799 1726.43 250.922C1724.34 247.952 1720 245.216 1713.43 242.71C1706.85 240.204 1697.05 237.236 1683.99 233.802C1669.98 230.091 1659.03 226.379 1651.11 222.668C1643.21 218.956 1637.59 214.688 1634.25 209.863C1630.92 204.945 1629.25 198.961 1629.25 191.908C1629.25 183.371 1631.74 175.902 1636.68 169.5C1641.64 163.004 1648.5 157.994 1657.26 154.467C1666.02 150.849 1676.23 149.04 1687.84 149.04C1699.46 149.04 1709.85 150.896 1718.99 154.607C1728.24 158.225 1735.67 163.329 1741.3 169.917C1745.85 175.25 1748.89 181.281 1750.44 188.013C1751.08 190.715 1749.16 193.258 1746.43 193.737L1735.06 195.728C1732.2 196.23 1729.52 194.268 1728.61 191.509C1726.47 185.08 1722.36 179.832 1716.28 175.763C1708.76 170.567 1699.18 167.876 1687.56 167.691C1676.61 167.412 1667.69 169.453 1660.84 173.814C1653.98 178.083 1650.55 183.79 1650.55 190.934C1650.55 194.924 1651.79 198.357 1654.26 201.233C1656.74 204.017 1661.22 206.662 1667.69 209.168C1674.26 211.672 1683.6 214.41 1695.7 217.379C1709.91 220.905 1721.04 224.617 1729.14 228.513C1737.24 232.411 1743.01 237.003 1746.44 242.293C1749.86 247.582 1751.59 254.123 1751.59 261.917C1751.59 276.114 1746.15 287.295 1735.29 295.462C1724.52 303.534 1709.67 307.57 1690.7 307.57Z" fill="black"/>
<path d="M1005.67 303.536C1004.45 303.536 1003.47 302.576 1003.47 301.395V105.252C1003.47 104.069 1004.45 103.11 1005.67 103.11H1082.92C1084.92 103.11 1087.16 103.203 1089.64 103.389C1092.21 103.481 1094.78 103.76 1097.35 104.224C1108.12 105.801 1117.22 109.466 1124.65 115.219C1132.18 120.879 1137.84 128.024 1141.66 136.654C1145.56 145.284 1147.52 154.841 1147.52 165.326C1147.52 175.718 1145.56 185.229 1141.66 193.858C1137.75 202.488 1132.03 209.679 1124.51 215.432C1117.08 221.092 1108.03 224.71 1097.35 226.289C1094.78 226.659 1092.21 226.938 1089.64 227.123C1087.16 227.309 1084.92 227.401 1082.92 227.401H1026.67C1025.46 227.401 1024.47 228.361 1024.47 229.542V301.395C1024.47 302.576 1023.49 303.536 1022.28 303.536H1005.67ZM1024.47 205.774C1024.47 206.957 1025.46 207.915 1026.67 207.915H1082.35C1084.06 207.915 1086.07 207.824 1088.35 207.637C1090.64 207.452 1092.88 207.127 1095.07 206.663C1102.12 205.179 1107.88 202.348 1112.36 198.173C1116.93 193.997 1120.32 189.033 1122.51 183.28C1124.79 177.527 1125.94 171.542 1125.94 165.326C1125.94 159.109 1124.79 153.123 1122.51 147.371C1120.32 141.526 1116.93 136.514 1112.36 132.339C1107.88 128.163 1102.12 125.333 1095.07 123.849C1092.88 123.385 1090.64 123.106 1088.35 123.014C1086.07 122.828 1084.06 122.735 1082.35 122.735H1026.67C1025.46 122.735 1024.47 123.694 1024.47 124.877V205.774Z" fill="black"/>
</mask>
<g mask="url(#mask4_176_75)">
<path d="M1690.7 307.57C1672.61 307.57 1657.7 303.766 1645.97 296.157C1635.89 289.558 1629.18 280.726 1625.84 269.661C1624.98 266.836 1626.96 264.032 1629.87 263.558L1641.32 261.7C1643.96 261.27 1646.46 262.936 1647.49 265.406C1650.24 271.89 1654.91 277.222 1661.56 281.403C1669.74 286.415 1679.85 288.919 1691.84 288.919C1703.56 288.919 1712.8 286.553 1719.57 281.821C1726.33 276.996 1729.72 270.454 1729.72 262.196C1729.72 257.557 1728.62 253.799 1726.43 250.922C1724.34 247.952 1720 245.216 1713.43 242.71C1706.85 240.204 1697.05 237.236 1683.99 233.802C1669.98 230.091 1659.03 226.379 1651.11 222.668C1643.21 218.956 1637.59 214.688 1634.25 209.863C1630.92 204.945 1629.25 198.961 1629.25 191.908C1629.25 183.371 1631.74 175.902 1636.68 169.5C1641.64 163.004 1648.5 157.994 1657.26 154.467C1666.02 150.849 1676.23 149.04 1687.84 149.04C1699.46 149.04 1709.85 150.896 1718.99 154.607C1728.24 158.225 1735.67 163.329 1741.3 169.917C1745.85 175.25 1748.89 181.281 1750.44 188.013C1751.08 190.715 1749.16 193.258 1746.43 193.737L1735.06 195.728C1732.2 196.23 1729.52 194.268 1728.61 191.509C1726.47 185.08 1722.36 179.832 1716.28 175.763C1708.76 170.567 1699.18 167.876 1687.56 167.691C1676.61 167.412 1667.69 169.453 1660.84 173.814C1653.98 178.083 1650.55 183.79 1650.55 190.934C1650.55 194.924 1651.79 198.357 1654.26 201.233C1656.74 204.017 1661.22 206.662 1667.69 209.168C1674.26 211.672 1683.6 214.41 1695.7 217.379C1709.91 220.905 1721.04 224.617 1729.14 228.513C1737.24 232.411 1743.01 237.003 1746.44 242.293C1749.86 247.582 1751.59 254.123 1751.59 261.917C1751.59 276.114 1746.15 287.295 1735.29 295.462C1724.52 303.534 1709.67 307.57 1690.7 307.57Z" stroke="#0075FF" stroke-width="0.369297" stroke-linejoin="round"/>
</g>
<mask id="mask5_176_75" style="mask-type:luminance" maskUnits="userSpaceOnUse" x="989" y="84" width="778" height="227">
<path d="M1766.67 84.8H989.333V310.933H1766.67V84.8Z" fill="white"/>
<path d="M1228.36 307.709C1213.02 307.709 1199.92 304.323 1189.06 297.549C1178.2 290.775 1169.86 281.403 1164.05 269.434C1158.24 257.464 1155.33 243.731 1155.33 228.235C1155.33 212.461 1158.29 198.635 1164.19 186.758C1170.1 174.882 1178.48 165.648 1189.34 159.061C1200.3 152.38 1213.3 149.04 1228.36 149.04C1243.79 149.04 1256.94 152.427 1267.8 159.201C1278.75 165.881 1287.09 175.207 1292.81 187.176C1298.62 199.052 1301.52 212.739 1301.52 228.235C1301.52 244.009 1298.62 257.881 1292.81 269.852C1287 281.728 1278.61 291.007 1267.66 297.688C1256.7 304.368 1243.6 307.709 1228.36 307.709ZM1228.36 288.084C1245.5 288.084 1258.27 282.563 1266.65 271.521C1275.04 260.387 1279.23 245.958 1279.23 228.235C1279.23 210.048 1274.99 195.573 1266.51 184.81C1258.13 174.046 1245.41 168.664 1228.36 168.664C1216.83 168.664 1207.3 171.217 1199.78 176.319C1192.34 181.331 1186.77 188.336 1183.06 197.337C1179.44 206.245 1177.62 216.544 1177.62 228.235C1177.62 246.33 1181.91 260.85 1190.49 271.799C1199.06 282.657 1211.68 288.084 1228.36 288.084Z" fill="black"/>
<path d="M1335.41 303.534C1332.53 303.534 1330.19 301.197 1330.19 298.315V104.153C1330.19 101.27 1332.53 98.9333 1335.41 98.9333H1345.98C1348.86 98.9333 1351.2 101.27 1351.2 104.153V298.315C1351.2 301.197 1348.86 303.534 1345.98 303.534H1335.41Z" fill="black"/>
<path d="M1432.48 307.709C1420.85 307.709 1411.09 305.669 1403.18 301.585C1395.37 297.502 1389.51 292.074 1385.61 285.301C1381.7 278.527 1379.75 271.151 1379.75 263.171C1379.75 255.005 1381.41 248.046 1384.75 242.293C1388.18 236.448 1392.8 231.668 1398.61 227.956C1404.52 224.245 1411.33 221.416 1419.04 219.467C1426.86 217.611 1435.48 215.987 1444.91 214.595C1454.43 213.111 1463.73 211.859 1472.78 210.837C1479.25 210.05 1485.14 209.285 1490.47 208.543C1491.84 208.352 1492.51 210.201 1491.32 210.914C1490.46 211.426 1489.37 210.796 1489.37 209.801C1489.33 196.108 1486.36 185.876 1480.49 179.103C1474.3 171.959 1463.53 168.386 1448.2 168.386C1437.63 168.386 1428.67 170.705 1421.33 175.345C1415.33 179.194 1410.8 184.894 1407.74 192.445C1406.67 195.102 1403.82 196.701 1401.06 195.912L1390.51 192.894C1387.79 192.114 1386.16 189.288 1387.09 186.608C1390.95 175.485 1397.56 166.674 1406.9 160.174C1417.57 152.752 1431.44 149.04 1448.48 149.04C1462.59 149.04 1474.54 151.638 1484.35 156.833C1494.26 161.937 1501.27 169.361 1505.36 179.103C1507.26 183.465 1508.51 188.336 1509.07 193.717C1509.65 199.099 1509.93 204.574 1509.93 210.141V298.315C1509.93 301.197 1507.6 303.534 1504.72 303.534H1496.44C1493.55 303.534 1491.21 301.197 1491.21 298.315V269.333C1491.21 267.654 1492.92 266.514 1494.47 267.15C1495.67 267.643 1496.25 269.018 1495.73 270.207C1490.47 282.046 1482.63 291.159 1472.21 297.549C1461.16 304.323 1447.92 307.709 1432.48 307.709ZM1434.91 290.033C1444.72 290.033 1453.3 288.316 1460.64 284.883C1467.97 281.45 1473.88 276.765 1478.35 270.826C1482.83 264.794 1485.74 258.021 1487.07 250.505C1488.21 245.68 1488.83 240.391 1488.93 234.637C1488.99 230.543 1489.03 227.176 1489.06 224.538C1489.07 223.17 1490.52 222.282 1491.73 222.898C1493.36 223.714 1492.93 226.121 1491.14 226.344C1485.68 227.021 1479.9 227.698 1473.78 228.375C1465.49 229.302 1457.3 230.369 1449.2 231.576C1441.19 232.782 1433.95 234.22 1427.48 235.891C1423.1 237.096 1418.86 238.814 1414.76 241.04C1410.66 243.174 1407.28 246.051 1404.61 249.67C1402.04 253.289 1400.75 257.789 1400.75 263.171C1400.75 267.531 1401.85 271.753 1404.04 275.836C1406.33 279.919 1409.95 283.305 1414.9 285.996C1419.95 288.687 1426.62 290.033 1434.91 290.033Z" fill="black"/>
<path d="M1546.64 303.535C1543.76 303.535 1541.42 301.197 1541.42 298.315V158.435C1541.42 155.552 1543.76 153.215 1546.64 153.215H1555.06C1557.95 153.215 1560.28 155.552 1560.28 158.435V184.374C1560.28 186.026 1558.2 186.747 1557.18 185.448C1556.8 184.966 1556.7 184.32 1556.93 183.752C1558.6 179.655 1560.72 175.878 1563.29 172.422C1566.04 168.618 1569.05 165.51 1572.29 163.097C1576.29 159.664 1580.95 157.067 1586.3 155.303C1591.63 153.447 1597.01 152.38 1602.44 152.102C1606.3 151.837 1609.91 151.949 1613.29 152.435C1615.67 152.777 1617.31 154.899 1617.31 157.296V165.753C1617.31 169.144 1614.11 171.635 1610.73 171.305C1606.99 170.937 1603.03 170.985 1598.86 171.449C1592.2 172.191 1586.06 174.788 1580.43 179.243C1575.29 183.14 1571.43 187.825 1568.86 193.3C1566.28 198.682 1564.57 204.434 1563.71 210.558C1562.85 216.591 1562.43 222.575 1562.43 228.513V298.315C1562.43 301.197 1560.09 303.535 1557.21 303.535H1546.64Z" fill="black"/>
<path d="M1690.7 307.57C1672.61 307.57 1657.7 303.766 1645.97 296.157C1635.89 289.558 1629.18 280.726 1625.84 269.661C1624.98 266.836 1626.96 264.032 1629.87 263.558L1641.32 261.7C1643.96 261.27 1646.46 262.936 1647.49 265.406C1650.24 271.89 1654.91 277.222 1661.56 281.403C1669.74 286.415 1679.85 288.919 1691.84 288.919C1703.56 288.919 1712.8 286.553 1719.57 281.821C1726.33 276.996 1729.72 270.454 1729.72 262.196C1729.72 257.557 1728.62 253.799 1726.43 250.922C1724.34 247.952 1720 245.216 1713.43 242.71C1706.85 240.204 1697.05 237.236 1683.99 233.802C1669.98 230.091 1659.03 226.379 1651.11 222.668C1643.21 218.956 1637.59 214.688 1634.25 209.863C1630.92 204.945 1629.25 198.961 1629.25 191.908C1629.25 183.371 1631.74 175.902 1636.68 169.5C1641.64 163.004 1648.5 157.994 1657.26 154.467C1666.02 150.849 1676.23 149.04 1687.84 149.04C1699.46 149.04 1709.85 150.896 1718.99 154.607C1728.24 158.225 1735.67 163.329 1741.3 169.917C1745.85 175.25 1748.89 181.281 1750.44 188.013C1751.08 190.715 1749.16 193.258 1746.43 193.737L1735.06 195.728C1732.2 196.23 1729.52 194.268 1728.61 191.509C1726.47 185.08 1722.36 179.832 1716.28 175.763C1708.76 170.567 1699.18 167.876 1687.56 167.691C1676.61 167.412 1667.69 169.453 1660.84 173.814C1653.98 178.083 1650.55 183.79 1650.55 190.934C1650.55 194.924 1651.79 198.357 1654.26 201.233C1656.74 204.017 1661.22 206.662 1667.69 209.168C1674.26 211.672 1683.6 214.41 1695.7 217.379C1709.91 220.905 1721.04 224.617 1729.14 228.513C1737.24 232.411 1743.01 237.003 1746.44 242.293C1749.86 247.582 1751.59 254.123 1751.59 261.917C1751.59 276.114 1746.15 287.295 1735.29 295.462C1724.52 303.534 1709.67 307.57 1690.7 307.57Z" fill="black"/>
<path d="M1005.67 303.536C1004.45 303.536 1003.47 302.576 1003.47 301.395V105.252C1003.47 104.069 1004.45 103.11 1005.67 103.11H1082.92C1084.92 103.11 1087.16 103.203 1089.64 103.389C1092.21 103.481 1094.78 103.76 1097.35 104.224C1108.12 105.801 1117.22 109.466 1124.65 115.219C1132.18 120.879 1137.84 128.024 1141.66 136.654C1145.56 145.284 1147.52 154.841 1147.52 165.326C1147.52 175.718 1145.56 185.229 1141.66 193.858C1137.75 202.488 1132.03 209.679 1124.51 215.432C1117.08 221.092 1108.03 224.71 1097.35 226.289C1094.78 226.659 1092.21 226.938 1089.64 227.123C1087.16 227.309 1084.92 227.401 1082.92 227.401H1026.67C1025.46 227.401 1024.47 228.361 1024.47 229.542V301.395C1024.47 302.576 1023.49 303.536 1022.28 303.536H1005.67ZM1024.47 205.774C1024.47 206.957 1025.46 207.915 1026.67 207.915H1082.35C1084.06 207.915 1086.07 207.824 1088.35 207.637C1090.64 207.452 1092.88 207.127 1095.07 206.663C1102.12 205.179 1107.88 202.348 1112.36 198.173C1116.93 193.997 1120.32 189.033 1122.51 183.28C1124.79 177.527 1125.94 171.542 1125.94 165.326C1125.94 159.109 1124.79 153.123 1122.51 147.371C1120.32 141.526 1116.93 136.514 1112.36 132.339C1107.88 128.163 1102.12 125.333 1095.07 123.849C1092.88 123.385 1090.64 123.106 1088.35 123.014C1086.07 122.828 1084.06 122.735 1082.35 122.735H1026.67C1025.46 122.735 1024.47 123.694 1024.47 124.877V205.774Z" fill="black"/>
</mask>
<g mask="url(#mask5_176_75)">
<path d="M1005.67 303.536C1004.45 303.536 1003.47 302.576 1003.47 301.395V105.252C1003.47 104.069 1004.45 103.11 1005.67 103.11H1082.92C1084.92 103.11 1087.16 103.203 1089.64 103.389C1092.21 103.481 1094.78 103.76 1097.35 104.224C1108.12 105.801 1117.22 109.466 1124.65 115.219C1132.18 120.879 1137.84 128.024 1141.66 136.654C1145.56 145.284 1147.52 154.841 1147.52 165.326C1147.52 175.718 1145.56 185.229 1141.66 193.858C1137.75 202.488 1132.03 209.679 1124.51 215.432C1117.08 221.092 1108.03 224.71 1097.35 226.289C1094.78 226.659 1092.21 226.938 1089.64 227.123C1087.16 227.309 1084.92 227.401 1082.92 227.401H1026.67C1025.46 227.401 1024.47 228.361 1024.47 229.542V301.395C1024.47 302.576 1023.49 303.536 1022.28 303.536H1005.67ZM1024.47 205.774C1024.47 206.957 1025.46 207.915 1026.67 207.915H1082.35C1084.06 207.915 1086.07 207.824 1088.35 207.637C1090.64 207.452 1092.88 207.127 1095.07 206.663C1102.12 205.179 1107.88 202.348 1112.36 198.173C1116.93 193.997 1120.32 189.033 1122.51 183.28C1124.79 177.527 1125.94 171.542 1125.94 165.326C1125.94 159.109 1124.79 153.123 1122.51 147.371C1120.32 141.526 1116.93 136.514 1112.36 132.339C1107.88 128.163 1102.12 125.333 1095.07 123.849C1092.88 123.385 1090.64 123.106 1088.35 123.014C1086.07 122.828 1084.06 122.735 1082.35 122.735H1026.67C1025.46 122.735 1024.47 123.694 1024.47 124.877V205.774Z" stroke="#0075FF" stroke-width="0.369297" stroke-linejoin="round"/>
</g>
<path d="M2460.36 314.233C2445.91 314.233 2433.52 310.645 2423.19 303.47C2412.86 296.197 2404.86 286.388 2399.22 274.044C2393.66 261.701 2390.89 247.779 2390.89 232.276C2390.89 216.774 2393.66 202.851 2399.22 190.507C2404.86 178.165 2412.86 168.451 2423.19 161.37C2433.52 154.195 2445.87 150.606 2460.22 150.606C2474.86 150.606 2487.16 154.147 2497.11 161.227C2507.06 168.308 2514.57 178.021 2519.65 190.365C2524.81 202.709 2527.39 216.68 2527.39 232.276C2527.39 247.682 2524.81 261.605 2519.65 274.044C2514.57 286.388 2507.06 296.197 2497.11 303.47C2487.16 310.645 2474.9 314.233 2460.36 314.233ZM2463.52 290.839C2473.96 290.839 2482.52 288.35 2489.22 283.375C2495.92 278.302 2500.84 271.366 2504 262.562C2507.25 253.662 2508.88 243.568 2508.88 232.276C2508.88 220.794 2507.25 210.698 2504 201.991C2500.84 193.187 2495.96 186.345 2489.36 181.465C2482.76 176.49 2474.38 174.001 2464.25 174.001C2453.72 174.001 2445.01 176.585 2438.11 181.752C2431.33 186.919 2426.26 193.905 2422.91 202.709C2419.66 211.512 2418.02 221.368 2418.02 232.276C2418.02 243.28 2419.7 253.233 2423.05 262.131C2426.4 270.935 2431.41 277.919 2438.11 283.088C2444.91 288.255 2453.38 290.839 2463.52 290.839ZM2517.36 309.928C2512.68 309.928 2508.88 306.131 2508.88 301.448V197.255C2508.88 196.462 2508.23 195.819 2507.44 195.819C2506.65 195.819 2506.01 195.176 2506.01 194.383V111.72C2506.01 107.036 2509.8 103.24 2514.49 103.24H2523.22C2527.9 103.24 2531.7 107.036 2531.7 111.72V301.448C2531.7 306.131 2527.9 309.928 2523.22 309.928H2517.36Z" fill="#0075FF" fill-opacity="0.5"/>
<path d="M2296.29 313.947C2286.34 313.947 2277.77 312.368 2270.6 309.209C2263.52 306.052 2257.63 301.841 2252.94 296.578C2248.26 291.316 2244.57 285.479 2241.89 279.068C2239.21 272.656 2237.29 266.102 2236.15 259.403C2235.1 252.705 2234.56 246.437 2234.56 240.6V163.391C2234.56 158.707 2238.37 154.911 2243.04 154.911H2251.92C2256.61 154.911 2260.4 158.707 2260.4 163.391V232.563C2260.4 239.836 2261.08 246.868 2262.42 253.662C2263.75 260.456 2266.01 266.58 2269.16 272.034C2272.41 277.488 2276.72 281.795 2282.08 284.952C2287.54 288.111 2294.33 289.69 2302.46 289.69C2308.88 289.69 2314.72 288.589 2319.97 286.388C2325.23 284.187 2329.74 280.934 2333.47 276.628C2337.2 272.226 2340.07 266.676 2342.08 259.977C2343.18 256.294 2343.99 252.277 2344.48 247.928C2345.13 242.316 2350.56 238.264 2355.96 239.925C2359.48 241.009 2361.92 244.268 2361.72 247.95C2361.06 260.27 2358.39 271.073 2353.71 280.36C2348.35 291.172 2340.73 299.497 2330.88 305.334C2321.12 311.076 2309.58 313.947 2296.29 313.947ZM2356.44 309.927C2351.76 309.927 2347.96 306.131 2347.96 301.447V269.882C2347.96 269.089 2347.32 268.446 2346.53 268.446C2345.74 268.446 2345.09 267.804 2345.09 267.011V163.391C2345.09 158.707 2348.89 154.911 2353.57 154.911H2362.3C2366.99 154.911 2370.78 158.707 2370.78 163.391V301.447C2370.78 306.131 2366.99 309.927 2362.3 309.927H2356.44Z" fill="#0075FF" fill-opacity="0.5"/>
<path d="M2142.53 314.233C2127.12 314.233 2113.82 310.741 2102.63 303.755C2091.54 296.77 2082.97 287.106 2076.94 274.762C2070.91 262.418 2067.89 248.256 2067.89 232.276C2067.89 216.008 2070.96 201.75 2077.08 189.503C2083.21 177.255 2091.86 167.733 2103.07 160.939C2114.26 154.049 2127.42 150.605 2142.53 150.605C2158.03 150.605 2171.39 154.097 2182.58 161.083C2193.78 167.972 2202.34 177.59 2208.28 189.934C2214.3 202.182 2217.32 216.295 2217.32 232.276C2217.32 248.447 2214.3 262.705 2208.28 275.049C2202.24 287.297 2193.63 296.913 2182.44 303.899C2171.25 310.788 2157.93 314.233 2142.53 314.233ZM2142.53 289.976C2158.61 289.976 2170.57 284.617 2178.41 273.9C2186.27 263.182 2190.19 249.308 2190.19 232.276C2190.19 214.764 2186.21 200.842 2178.27 190.507C2170.33 180.077 2158.41 174.862 2142.53 174.862C2131.72 174.862 2122.83 177.303 2115.83 182.183C2108.85 187.062 2103.63 193.809 2100.2 202.42C2096.75 211.032 2095.03 220.985 2095.03 232.276C2095.03 249.691 2099.04 263.662 2107.08 274.187C2115.12 284.713 2126.94 289.976 2142.53 289.976Z" fill="#0075FF" fill-opacity="0.5"/>
<path d="M2027.85 309.927C2023.17 309.927 2019.37 306.131 2019.37 301.447V107.413C2019.37 102.73 2023.17 98.9333 2027.85 98.9333H2036.44C2041.12 98.9333 2044.92 102.73 2044.92 107.413V301.447C2044.92 306.131 2041.12 309.927 2036.44 309.927H2027.85Z" fill="#0075FF" fill-opacity="0.5"/>
<path d="M1905.53 314.233C1884.95 314.233 1867.48 309.688 1853.13 300.598C1838.77 291.507 1827.82 278.876 1820.26 262.705C1812.8 246.533 1809.07 227.827 1809.07 206.584C1809.07 185.34 1812.8 166.633 1820.26 150.462C1827.82 134.29 1838.77 121.659 1853.13 112.569C1867.48 103.479 1884.95 98.9333 1905.53 98.9333C1929.44 98.9333 1949.11 105.01 1964.52 117.162C1977.89 127.653 1987.67 141.28 1993.86 158.046C1995.5 162.494 1992.76 167.247 1988.18 168.462L1978.68 170.982C1974.17 172.177 1969.59 169.491 1967.95 165.137C1963.52 153.464 1956.87 143.979 1948.01 136.683C1937.2 127.784 1923.04 123.334 1905.53 123.334C1890.12 123.334 1877.29 126.827 1867.06 133.812C1856.81 140.797 1849.11 150.558 1843.95 163.093C1838.77 175.532 1836.15 190.03 1836.05 206.584C1835.95 223.042 1838.49 237.539 1843.67 250.074C1848.82 262.514 1856.58 272.274 1866.91 279.355C1877.25 286.34 1890.12 289.832 1905.53 289.832C1923.04 289.832 1937.2 285.383 1948.01 276.485C1956.87 269.114 1963.52 259.624 1967.94 248.013C1969.59 243.666 1974.17 240.987 1978.67 242.18L1988.18 244.702C1992.76 245.919 1995.49 250.679 1993.85 255.128C1987.66 271.815 1977.89 285.44 1964.52 296.004C1949.11 308.158 1929.44 314.233 1905.53 314.233Z" fill="#0075FF" fill-opacity="0.5"/>
<path fill-rule="evenodd" clip-rule="evenodd" d="M4.77447 318.535H24.3613C26.993 318.535 29.1357 320.674 29.1357 323.333V396.239C29.1357 398.883 27.0074 401.037 24.3613 401.037H4.77447C2.14275 401.037 0 398.898 0 396.239V323.333C0 320.688 2.12838 318.535 4.77447 318.535ZM50.0456 222.722H65.3756C69.1866 222.722 72.264 225.83 72.264 229.645V318.535C72.264 322.364 69.1722 325.457 65.3756 325.457H50.0456C46.2346 325.457 43.1571 322.349 43.1571 318.535V229.645C43.1571 225.816 46.249 222.722 50.0456 222.722ZM47.9172 337.205H67.504C70.1358 337.205 72.2784 339.344 72.2784 342.003V419.202C72.2784 421.846 70.1502 424 67.504 424H47.9172C45.2855 424 43.1428 421.861 43.1428 419.202V342.003C43.1428 339.359 45.2712 337.205 47.9172 337.205ZM91.0743 126.015H110.661C113.293 126.015 115.436 128.154 115.436 130.813V275.368C115.436 278.013 113.307 280.166 110.661 280.166H91.0743C88.4427 280.166 86.2999 278.027 86.2999 275.368V130.813C86.2999 128.168 88.4283 126.015 91.0743 126.015ZM91.0743 293.736H110.661C113.293 293.736 115.436 295.875 115.436 298.534V343.361C115.436 346.006 113.307 348.159 110.661 348.159H91.0743C88.4427 348.159 86.2999 346.02 86.2999 343.361V298.534C86.2999 295.889 88.4283 293.736 91.0743 293.736ZM93.2027 384.692H108.533C112.344 384.692 115.421 387.8 115.421 391.614V417.048C115.421 420.879 112.329 423.971 108.533 423.971H93.2027C89.3917 423.971 86.3143 420.864 86.3143 417.048V391.614C86.3143 387.785 89.4061 384.692 93.2027 384.692ZM134.231 57.4583H153.818C156.451 57.4583 158.593 59.5971 158.593 62.256V164.499C158.593 167.143 156.465 169.297 153.818 169.297H134.231C131.6 169.297 129.457 167.158 129.457 164.499V62.2272C129.457 59.5825 131.585 57.4293 134.231 57.4293V57.4583ZM134.231 181.739H153.832C156.465 181.739 158.593 183.878 158.593 186.522V325.11C158.593 327.755 156.465 329.894 153.832 329.894H134.231C131.6 329.894 129.471 327.755 129.471 325.11V186.522C129.471 183.878 131.6 181.739 134.231 181.739ZM177.388 36.3594H196.976C199.607 36.3594 201.749 38.4982 201.749 41.1571V109.338C201.749 111.983 199.622 114.136 196.976 114.136H177.388C174.757 114.136 172.615 111.997 172.615 109.338V41.1427C172.615 38.4982 174.742 36.345 177.388 36.345V36.3594ZM177.388 126.116H196.976C199.607 126.116 201.749 128.255 201.749 130.914V229.01C201.749 231.654 199.622 233.808 196.976 233.808H177.388C174.757 233.808 172.615 231.669 172.615 229.01V130.914C172.615 128.269 174.742 126.116 177.388 126.116ZM177.388 247.926H196.976C199.607 247.926 201.749 250.065 201.749 252.723V340.862C201.749 343.507 199.622 345.659 196.976 345.659H177.388C174.757 345.659 172.615 343.522 172.615 340.862V252.723C172.615 250.078 174.742 247.926 177.388 247.926ZM222.645 19.249H237.976C241.787 19.249 244.864 22.3562 244.864 26.1713V154.18C244.864 158.011 241.773 161.103 237.976 161.103H222.645C218.834 161.103 215.757 157.996 215.757 154.18V26.1713C215.757 22.3416 218.848 19.249 222.645 19.249ZM222.645 175.25H237.976C241.787 175.25 244.864 178.357 244.864 182.173V211.885C244.864 215.714 241.773 218.806 237.976 218.806H222.645C218.834 218.806 215.757 215.699 215.757 211.885V182.173C215.757 178.344 218.848 175.25 222.645 175.25ZM222.645 228.692H237.962C241.773 228.692 244.85 231.798 244.85 235.613V367.901C244.85 371.73 241.758 374.822 237.962 374.822H222.645C218.834 374.822 215.757 371.715 215.757 367.901V235.613C215.757 231.784 218.848 228.692 222.645 228.692ZM265.803 2.15324H281.133C284.944 2.15324 288.021 5.26025 288.021 9.07539V34.5097C288.021 38.3392 284.929 41.4318 281.133 41.4318H265.803C261.992 41.4318 258.913 38.3248 258.913 34.5097V9.08985C258.913 5.26025 262.006 2.16769 265.803 2.16769V2.15324ZM265.803 53.4263H281.133C284.944 53.4263 288.021 56.5333 288.021 60.3485V256.741C288.021 260.571 284.929 263.664 281.133 263.664H265.803C261.992 263.664 258.913 260.556 258.913 256.741V60.3629C258.913 56.5333 262.006 53.4408 265.803 53.4408V53.4263ZM265.803 277.81H281.133C284.944 277.81 288.021 280.918 288.021 284.733V337.943C288.021 341.772 284.929 344.865 281.133 344.865H265.803C261.992 344.865 258.913 341.757 258.913 337.943V284.733C258.913 280.904 262.006 277.81 265.803 277.81ZM265.803 359.027H281.133C284.944 359.027 288.021 362.134 288.021 365.95V399.938C288.021 403.769 284.929 406.861 281.133 406.861H265.803C261.992 406.861 258.913 403.754 258.913 399.938V365.95C258.913 362.119 262.006 359.027 265.803 359.027ZM308.959 348.333H324.289C328.1 348.333 331.179 351.441 331.179 355.255V417.034C331.179 420.864 328.086 423.956 324.289 423.956H308.959C305.149 423.956 302.071 420.85 302.071 417.034V355.255C302.071 351.426 305.163 348.333 308.959 348.333ZM308.959 134.642H324.289C328.1 134.642 331.179 137.749 331.179 141.565V293.071C331.179 296.901 328.086 299.994 324.289 299.994H308.959C305.149 299.994 302.071 296.886 302.071 293.071V141.565C302.071 137.735 305.163 134.642 308.959 134.642ZM308.959 0H324.289C328.1 0 331.179 3.10702 331.179 6.92216V113.558C331.179 117.388 328.086 120.48 324.289 120.48H308.959C305.149 120.48 302.071 117.373 302.071 113.558V6.93661C302.071 3.10702 305.163 0.0144513 308.959 0.0144513V0ZM352.116 380.386H367.447C371.258 380.386 374.335 383.493 374.335 387.309V417.021C374.335 420.85 371.244 423.942 367.447 423.942H352.116C348.305 423.942 345.228 420.835 345.228 417.021V387.309C345.228 383.478 348.32 380.386 352.116 380.386ZM352.116 2.13878H367.447C371.258 2.13878 374.335 5.24581 374.335 9.06094V190.497C374.335 194.326 371.244 197.419 367.447 197.419H352.116C348.305 197.419 345.228 194.311 345.228 190.497V9.07539C345.228 5.24581 348.32 2.15324 352.116 2.15324V2.13878ZM352.116 211.566H367.447C371.258 211.566 374.335 214.674 374.335 218.488V293.071C374.335 296.901 371.244 299.994 367.447 299.994H352.116C348.305 299.994 345.228 296.886 345.228 293.071V218.488C345.228 214.659 348.32 211.566 352.116 211.566ZM395.245 10.6939H410.575C414.386 10.6939 417.463 13.801 417.463 17.6161V68.6868C417.463 72.5164 414.371 75.609 410.575 75.609H395.245C391.434 75.609 388.357 72.502 388.357 68.6868V17.6305C388.357 13.801 391.449 10.7084 395.245 10.7084V10.6939ZM395.245 89.7567H410.575C414.386 89.7567 417.463 92.8639 417.463 96.679V293.071C417.463 296.901 414.371 299.994 410.575 299.994H395.245C391.434 299.994 388.357 296.886 388.357 293.071V96.6934C388.357 92.8639 391.449 89.7713 395.245 89.7713V89.7567ZM438.387 14.9716H453.717C457.529 14.9716 460.607 18.0786 460.607 21.8937V134.946C460.607 138.775 457.515 141.868 453.717 141.868H438.387C434.577 141.868 431.499 138.761 431.499 134.946V21.9081C431.499 18.0786 434.591 14.986 438.387 14.986V14.9716ZM438.387 156.016H453.717C457.529 156.016 460.607 159.122 460.607 162.938V256.771C460.607 260.6 457.515 263.692 453.717 263.692H438.387C434.577 263.692 431.499 260.585 431.499 256.771V162.938C431.499 159.108 434.591 156.016 438.387 156.016ZM438.387 277.81H453.717C457.529 277.81 460.607 280.918 460.607 284.733V327.264C460.607 331.093 457.515 334.185 453.717 334.185H438.387C434.577 334.185 431.499 331.078 431.499 327.264V284.733C431.499 280.904 434.591 277.81 438.387 277.81ZM481.272 21.3878H496.602C500.413 21.3878 503.49 24.4948 503.49 28.3101V203.329C503.49 207.158 500.398 210.252 496.602 210.252H481.272C477.461 210.252 474.383 207.144 474.383 203.329V28.3245C474.383 24.4948 477.476 21.4024 481.272 21.4024V21.3878ZM481.272 224.399H496.602C500.413 224.399 503.49 227.506 503.49 231.322V370.011C503.49 373.84 500.398 376.932 496.602 376.932H481.272C477.461 376.932 474.383 373.825 474.383 370.011V231.322C474.383 227.491 477.476 224.399 481.272 224.399ZM524.127 14.9716H539.456C543.267 14.9716 546.346 18.0786 546.346 21.8937V96.4766C546.346 100.306 543.253 103.399 539.456 103.399H524.127C520.316 103.399 517.239 100.292 517.239 96.4766V21.9081C517.239 18.0786 520.33 14.986 524.127 14.986V14.9716ZM524.127 117.546H539.456C543.267 117.546 546.346 120.654 546.346 124.469V342.25C546.346 346.079 543.253 349.172 539.456 349.172H524.127C520.316 349.172 517.239 346.064 517.239 342.25V124.483C517.239 120.654 520.33 117.561 524.127 117.561V117.546ZM524.127 363.305H539.456C543.267 363.305 546.346 366.412 546.346 370.226V410.618C546.346 414.448 543.253 417.541 539.456 417.541H524.127C520.316 417.541 517.239 414.433 517.239 410.618V370.226C517.239 366.397 520.33 363.305 524.127 363.305ZM567.27 350.486H582.6C586.411 350.486 589.488 353.593 589.488 357.409V417.034C589.488 420.864 586.396 423.956 582.6 423.956H567.27C563.459 423.956 560.381 420.85 560.381 417.034V357.409C560.381 353.58 563.472 350.486 567.27 350.486ZM567.27 168.848H582.6C586.411 168.848 589.488 171.956 589.488 175.771V216.176C589.488 220.006 586.396 223.098 582.6 223.098H567.27C563.459 223.098 560.381 219.992 560.381 216.176V175.771C560.381 171.941 563.472 168.848 567.27 168.848ZM567.27 12.8472H582.6C586.411 12.8472 589.488 15.9542 589.488 19.7693V147.779C589.488 151.608 586.396 154.7 582.6 154.7H567.27C563.459 154.7 560.381 151.594 560.381 147.779V19.7693C560.381 15.9398 563.472 12.8472 567.27 12.8472ZM611.002 23.541H626.332C630.143 23.541 633.22 26.6482 633.22 30.4633V192.664C633.22 196.494 630.128 199.586 626.332 199.586H611.002C607.191 199.586 604.114 196.48 604.114 192.664V30.4633C604.114 26.6336 607.206 23.541 611.002 23.541ZM611.002 384.692H626.332C630.143 384.692 633.22 387.8 633.22 391.614V417.048C633.22 420.879 630.128 423.971 626.332 423.971H611.002C607.191 423.971 604.114 420.864 604.114 417.048V391.614C604.114 387.785 607.206 384.692 611.002 384.692ZM653.54 36.3738H668.871C672.682 36.3738 675.759 39.4808 675.759 43.2959V83.7017C675.759 87.5312 672.668 90.6238 668.871 90.6238H653.54C649.729 90.6238 646.652 87.5168 646.652 83.7017V43.2959C646.652 39.4664 649.744 36.3738 653.54 36.3738ZM653.54 104.743H668.871C672.682 104.743 675.759 107.85 675.759 111.665V188.387C675.759 192.216 672.668 195.308 668.871 195.308H653.54C649.729 195.308 646.652 192.202 646.652 188.387V111.665C646.652 107.835 649.744 104.743 653.54 104.743ZM697.23 47.0388H712.56C716.371 47.0388 719.448 50.1459 719.448 53.9611V79.3952C719.448 83.2248 716.357 86.3174 712.56 86.3174H697.23C693.42 86.3174 690.341 83.2104 690.341 79.3952V53.9611C690.341 50.1314 693.434 47.0388 697.23 47.0388ZM697.23 98.3263H712.56C716.371 98.3263 719.448 101.433 719.448 105.249V128.544C719.448 132.374 716.357 135.466 712.56 135.466H697.23C693.42 135.466 690.341 132.359 690.341 128.544V105.249C690.341 101.419 693.434 98.3263 697.23 98.3263ZM697.23 147.475H712.56C716.371 147.475 719.448 150.583 719.448 154.397V192.65C719.448 196.48 716.357 199.571 712.56 199.571H697.23C693.42 199.571 690.341 196.465 690.341 192.65V154.397C690.341 150.568 693.434 147.475 697.23 147.475ZM740.373 59.8716H755.702C759.513 59.8716 762.592 62.9786 762.592 66.7937V199.08C762.592 202.909 759.499 206.003 755.702 206.003H740.373C736.562 206.003 733.485 202.896 733.485 199.08V66.7793C733.485 62.9497 736.576 59.8571 740.373 59.8571V59.8716ZM783.243 98.3263H798.573C802.383 98.3263 805.461 101.433 805.461 105.249V194.788C805.461 198.618 802.369 201.71 798.573 201.71H783.243C779.431 201.71 776.353 198.604 776.353 194.788V105.249C776.353 101.419 779.445 98.3263 783.243 98.3263ZM825.781 147.475H841.11C844.921 147.475 848 150.583 848 154.397V179.831C848 183.66 844.907 186.754 841.11 186.754H825.781C821.97 186.754 818.893 183.646 818.893 179.831V154.397C818.893 150.568 821.984 147.475 825.781 147.475Z" fill="url(#paint0_radial_176_75)"/>
<path fill-rule="evenodd" clip-rule="evenodd" d="M4.77447 318.535H24.3613C26.993 318.535 29.1357 320.674 29.1357 323.333V396.239C29.1357 398.883 27.0074 401.037 24.3613 401.037H4.77447C2.14275 401.037 0 398.898 0 396.239V323.333C0 320.688 2.12838 318.535 4.77447 318.535ZM50.0456 222.722H65.3756C69.1866 222.722 72.264 225.83 72.264 229.645V318.535C72.264 322.364 69.1722 325.457 65.3756 325.457H50.0456C46.2346 325.457 43.1571 322.349 43.1571 318.535V229.645C43.1571 225.816 46.249 222.722 50.0456 222.722ZM47.9172 337.205H67.504C70.1358 337.205 72.2784 339.344 72.2784 342.003V419.202C72.2784 421.846 70.1502 424 67.504 424H47.9172C45.2855 424 43.1428 421.861 43.1428 419.202V342.003C43.1428 339.359 45.2712 337.205 47.9172 337.205ZM91.0743 126.015H110.661C113.293 126.015 115.436 128.154 115.436 130.813V275.368C115.436 278.013 113.307 280.166 110.661 280.166H91.0743C88.4427 280.166 86.2999 278.027 86.2999 275.368V130.813C86.2999 128.168 88.4283 126.015 91.0743 126.015ZM91.0743 293.736H110.661C113.293 293.736 115.436 295.875 115.436 298.534V343.361C115.436 346.006 113.307 348.159 110.661 348.159H91.0743C88.4427 348.159 86.2999 346.02 86.2999 343.361V298.534C86.2999 295.889 88.4283 293.736 91.0743 293.736ZM93.2027 384.692H108.533C112.344 384.692 115.421 387.8 115.421 391.614V417.048C115.421 420.879 112.329 423.971 108.533 423.971H93.2027C89.3917 423.971 86.3143 420.864 86.3143 417.048V391.614C86.3143 387.785 89.4061 384.692 93.2027 384.692ZM134.231 57.4583H153.818C156.451 57.4583 158.593 59.5971 158.593 62.256V164.499C158.593 167.143 156.465 169.297 153.818 169.297H134.231C131.6 169.297 129.457 167.158 129.457 164.499V62.2272C129.457 59.5825 131.585 57.4293 134.231 57.4293V57.4583ZM134.231 181.739H153.832C156.465 181.739 158.593 183.878 158.593 186.522V325.11C158.593 327.755 156.465 329.894 153.832 329.894H134.231C131.6 329.894 129.471 327.755 129.471 325.11V186.522C129.471 183.878 131.6 181.739 134.231 181.739ZM177.388 36.3594H196.976C199.607 36.3594 201.749 38.4982 201.749 41.1571V109.338C201.749 111.983 199.622 114.136 196.976 114.136H177.388C174.757 114.136 172.615 111.997 172.615 109.338V41.1427C172.615 38.4982 174.742 36.345 177.388 36.345V36.3594ZM177.388 126.116H196.976C199.607 126.116 201.749 128.255 201.749 130.914V229.01C201.749 231.654 199.622 233.808 196.976 233.808H177.388C174.757 233.808 172.615 231.669 172.615 229.01V130.914C172.615 128.269 174.742 126.116 177.388 126.116ZM177.388 247.926H196.976C199.607 247.926 201.749 250.065 201.749 252.723V340.862C201.749 343.507 199.622 345.659 196.976 345.659H177.388C174.757 345.659 172.615 343.522 172.615 340.862V252.723C172.615 250.078 174.742 247.926 177.388 247.926ZM222.645 19.249H237.976C241.787 19.249 244.864 22.3562 244.864 26.1713V154.18C244.864 158.011 241.773 161.103 237.976 161.103H222.645C218.834 161.103 215.757 157.996 215.757 154.18V26.1713C215.757 22.3416 218.848 19.249 222.645 19.249ZM222.645 175.25H237.976C241.787 175.25 244.864 178.357 244.864 182.173V211.885C244.864 215.714 241.773 218.806 237.976 218.806H222.645C218.834 218.806 215.757 215.699 215.757 211.885V182.173C215.757 178.344 218.848 175.25 222.645 175.25ZM222.645 228.692H237.962C241.773 228.692 244.85 231.798 244.85 235.613V367.901C244.85 371.73 241.758 374.822 237.962 374.822H222.645C218.834 374.822 215.757 371.715 215.757 367.901V235.613C215.757 231.784 218.848 228.692 222.645 228.692ZM265.803 2.15324H281.133C284.944 2.15324 288.021 5.26025 288.021 9.07539V34.5097C288.021 38.3392 284.929 41.4318 281.133 41.4318H265.803C261.992 41.4318 258.913 38.3248 258.913 34.5097V9.08985C258.913 5.26025 262.006 2.16769 265.803 2.16769V2.15324ZM265.803 53.4263H281.133C284.944 53.4263 288.021 56.5333 288.021 60.3485V256.741C288.021 260.571 284.929 263.664 281.133 263.664H265.803C261.992 263.664 258.913 260.556 258.913 256.741V60.3629C258.913 56.5333 262.006 53.4408 265.803 53.4408V53.4263ZM265.803 277.81H281.133C284.944 277.81 288.021 280.918 288.021 284.733V337.943C288.021 341.772 284.929 344.865 281.133 344.865H265.803C261.992 344.865 258.913 341.757 258.913 337.943V284.733C258.913 280.904 262.006 277.81 265.803 277.81ZM265.803 359.027H281.133C284.944 359.027 288.021 362.134 288.021 365.95V399.938C288.021 403.769 284.929 406.861 281.133 406.861H265.803C261.992 406.861 258.913 403.754 258.913 399.938V365.95C258.913 362.119 262.006 359.027 265.803 359.027ZM308.959 348.333H324.289C328.1 348.333 331.179 351.441 331.179 355.255V417.034C331.179 420.864 328.086 423.956 324.289 423.956H308.959C305.149 423.956 302.071 420.85 302.071 417.034V355.255C302.071 351.426 305.163 348.333 308.959 348.333ZM308.959 134.642H324.289C328.1 134.642 331.179 137.749 331.179 141.565V293.071C331.179 296.901 328.086 299.994 324.289 299.994H308.959C305.149 299.994 302.071 296.886 302.071 293.071V141.565C302.071 137.735 305.163 134.642 308.959 134.642ZM308.959 0H324.289C328.1 0 331.179 3.10702 331.179 6.92216V113.558C331.179 117.388 328.086 120.48 324.289 120.48H308.959C305.149 120.48 302.071 117.373 302.071 113.558V6.93661C302.071 3.10702 305.163 0.0144513 308.959 0.0144513V0ZM352.116 380.386H367.447C371.258 380.386 374.335 383.493 374.335 387.309V417.021C374.335 420.85 371.244 423.942 367.447 423.942H352.116C348.305 423.942 345.228 420.835 345.228 417.021V387.309C345.228 383.478 348.32 380.386 352.116 380.386ZM352.116 2.13878H367.447C371.258 2.13878 374.335 5.24581 374.335 9.06094V190.497C374.335 194.326 371.244 197.419 367.447 197.419H352.116C348.305 197.419 345.228 194.311 345.228 190.497V9.07539C345.228 5.24581 348.32 2.15324 352.116 2.15324V2.13878ZM352.116 211.566H367.447C371.258 211.566 374.335 214.674 374.335 218.488V293.071C374.335 296.901 371.244 299.994 367.447 299.994H352.116C348.305 299.994 345.228 296.886 345.228 293.071V218.488C345.228 214.659 348.32 211.566 352.116 211.566ZM395.245 10.6939H410.575C414.386 10.6939 417.463 13.801 417.463 17.6161V68.6868C417.463 72.5164 414.371 75.609 410.575 75.609H395.245C391.434 75.609 388.357 72.502 388.357 68.6868V17.6305C388.357 13.801 391.449 10.7084 395.245 10.7084V10.6939ZM395.245 89.7567H410.575C414.386 89.7567 417.463 92.8639 417.463 96.679V293.071C417.463 296.901 414.371 299.994 410.575 299.994H395.245C391.434 299.994 388.357 296.886 388.357 293.071V96.6934C388.357 92.8639 391.449 89.7713 395.245 89.7713V89.7567ZM438.387 14.9716H453.717C457.529 14.9716 460.607 18.0786 460.607 21.8937V134.946C460.607 138.775 457.515 141.868 453.717 141.868H438.387C434.577 141.868 431.499 138.761 431.499 134.946V21.9081C431.499 18.0786 434.591 14.986 438.387 14.986V14.9716ZM438.387 156.016H453.717C457.529 156.016 460.607 159.122 460.607 162.938V256.771C460.607 260.6 457.515 263.692 453.717 263.692H438.387C434.577 263.692 431.499 260.585 431.499 256.771V162.938C431.499 159.108 434.591 156.016 438.387 156.016ZM438.387 277.81H453.717C457.529 277.81 460.607 280.918 460.607 284.733V327.264C460.607 331.093 457.515 334.185 453.717 334.185H438.387C434.577 334.185 431.499 331.078 431.499 327.264V284.733C431.499 280.904 434.591 277.81 438.387 277.81ZM481.272 21.3878H496.602C500.413 21.3878 503.49 24.4948 503.49 28.3101V203.329C503.49 207.158 500.398 210.252 496.602 210.252H481.272C477.461 210.252 474.383 207.144 474.383 203.329V28.3245C474.383 24.4948 477.476 21.4024 481.272 21.4024V21.3878ZM481.272 224.399H496.602C500.413 224.399 503.49 227.506 503.49 231.322V370.011C503.49 373.84 500.398 376.932 496.602 376.932H481.272C477.461 376.932 474.383 373.825 474.383 370.011V231.322C474.383 227.491 477.476 224.399 481.272 224.399ZM524.127 14.9716H539.456C543.267 14.9716 546.346 18.0786 546.346 21.8937V96.4766C546.346 100.306 543.253 103.399 539.456 103.399H524.127C520.316 103.399 517.239 100.292 517.239 96.4766V21.9081C517.239 18.0786 520.33 14.986 524.127 14.986V14.9716ZM524.127 117.546H539.456C543.267 117.546 546.346 120.654 546.346 124.469V342.25C546.346 346.079 543.253 349.172 539.456 349.172H524.127C520.316 349.172 517.239 346.064 517.239 342.25V124.483C517.239 120.654 520.33 117.561 524.127 117.561V117.546ZM524.127 363.305H539.456C543.267 363.305 546.346 366.412 546.346 370.226V410.618C546.346 414.448 543.253 417.541 539.456 417.541H524.127C520.316 417.541 517.239 414.433 517.239 410.618V370.226C517.239 366.397 520.33 363.305 524.127 363.305ZM567.27 350.486H582.6C586.411 350.486 589.488 353.593 589.488 357.409V417.034C589.488 420.864 586.396 423.956 582.6 423.956H567.27C563.459 423.956 560.381 420.85 560.381 417.034V357.409C560.381 353.58 563.472 350.486 567.27 350.486ZM567.27 168.848H582.6C586.411 168.848 589.488 171.956 589.488 175.771V216.176C589.488 220.006 586.396 223.098 582.6 223.098H567.27C563.459 223.098 560.381 219.992 560.381 216.176V175.771C560.381 171.941 563.472 168.848 567.27 168.848ZM567.27 12.8472H582.6C586.411 12.8472 589.488 15.9542 589.488 19.7693V147.779C589.488 151.608 586.396 154.7 582.6 154.7H567.27C563.459 154.7 560.381 151.594 560.381 147.779V19.7693C560.381 15.9398 563.472 12.8472 567.27 12.8472ZM611.002 23.541H626.332C630.143 23.541 633.22 26.6482 633.22 30.4633V192.664C633.22 196.494 630.128 199.586 626.332 199.586H611.002C607.191 199.586 604.114 196.48 604.114 192.664V30.4633C604.114 26.6336 607.206 23.541 611.002 23.541ZM611.002 384.692H626.332C630.143 384.692 633.22 387.8 633.22 391.614V417.048C633.22 420.879 630.128 423.971 626.332 423.971H611.002C607.191 423.971 604.114 420.864 604.114 417.048V391.614C604.114 387.785 607.206 384.692 611.002 384.692ZM653.54 36.3738H668.871C672.682 36.3738 675.759 39.4808 675.759 43.2959V83.7017C675.759 87.5312 672.668 90.6238 668.871 90.6238H653.54C649.729 90.6238 646.652 87.5168 646.652 83.7017V43.2959C646.652 39.4664 649.744 36.3738 653.54 36.3738ZM653.54 104.743H668.871C672.682 104.743 675.759 107.85 675.759 111.665V188.387C675.759 192.216 672.668 195.308 668.871 195.308H653.54C649.729 195.308 646.652 192.202 646.652 188.387V111.665C646.652 107.835 649.744 104.743 653.54 104.743ZM697.23 47.0388H712.56C716.371 47.0388 719.448 50.1459 719.448 53.9611V79.3952C719.448 83.2248 716.357 86.3174 712.56 86.3174H697.23C693.42 86.3174 690.341 83.2104 690.341 79.3952V53.9611C690.341 50.1314 693.434 47.0388 697.23 47.0388ZM697.23 98.3263H712.56C716.371 98.3263 719.448 101.433 719.448 105.249V128.544C719.448 132.374 716.357 135.466 712.56 135.466H697.23C693.42 135.466 690.341 132.359 690.341 128.544V105.249C690.341 101.419 693.434 98.3263 697.23 98.3263ZM697.23 147.475H712.56C716.371 147.475 719.448 150.583 719.448 154.397V192.65C719.448 196.48 716.357 199.571 712.56 199.571H697.23C693.42 199.571 690.341 196.465 690.341 192.65V154.397C690.341 150.568 693.434 147.475 697.23 147.475ZM740.373 59.8716H755.702C759.513 59.8716 762.592 62.9786 762.592 66.7937V199.08C762.592 202.909 759.499 206.003 755.702 206.003H740.373C736.562 206.003 733.485 202.896 733.485 199.08V66.7793C733.485 62.9497 736.576 59.8571 740.373 59.8571V59.8716ZM783.243 98.3263H798.573C802.383 98.3263 805.461 101.433 805.461 105.249V194.788C805.461 198.618 802.369 201.71 798.573 201.71H783.243C779.431 201.71 776.353 198.604 776.353 194.788V105.249C776.353 101.419 779.445 98.3263 783.243 98.3263ZM825.781 147.475H841.11C844.921 147.475 848 150.583 848 154.397V179.831C848 183.66 844.907 186.754 841.11 186.754H825.781C821.97 186.754 818.893 183.646 818.893 179.831V154.397C818.893 150.568 821.984 147.475 825.781 147.475Z" fill="url(#paint1_radial_176_75)"/>
<defs>
<radialGradient id="paint0_radial_176_75" cx="0" cy="0" r="1" gradientUnits="userSpaceOnUse" gradientTransform="translate(727.932 93.251) rotate(157.001) scale(859.557 1756.71)">
<stop stop-color="#0075FF"/>
<stop offset="1" stop-color="#0075FF" stop-opacity="0"/>
</radialGradient>
<radialGradient id="paint1_radial_176_75" cx="0" cy="0" r="1" gradientUnits="userSpaceOnUse" gradientTransform="translate(727.932 93.251) rotate(157.001) scale(859.557 1756.71)">
<stop stop-color="#0075FF"/>
<stop offset="1" stop-color="#0075FF" stop-opacity="0"/>
</radialGradient>
</defs>
</svg>
